{"glyphs":{"0":{"ha":822,"x_min":53,"x_max":769,"o":"m 410 114 q 501 140 464 114 q 560 213 538 165 q 594 328 583 260 q 604 481 604 396 q 594 632 604 564 q 560 748 583 700 q 501 822 538 796 q 410 847 464 847 q 319 821 356 847 q 260 747 282 794 q 228 631 238 699 q 218 481 218 564 q 262 208 218 303 q 410 114 306 114 m 408 -25 q 259 4 325 -25 q 147 95 193 33 q 77 253 101 157 q 53 481 53 349 q 147 860 53 735 q 414 986 240 986 q 676 863 582 986 q 769 481 769 740 q 745 253 769 349 q 674 97 721 158 q 560 5 628 35 q 408 -25 493 -25 z "},"1":{"ha":822,"x_min":122,"x_max":558,"o":"m 192 657 l 122 774 l 419 960 l 558 960 l 558 0 l 397 0 l 397 781 l 192 657 z "},"2":{"ha":822,"x_min":68,"x_max":743,"o":"m 78 124 q 273 290 183 217 q 427 427 363 363 q 528 553 492 492 q 565 689 565 615 q 524 805 565 763 q 413 847 483 847 q 283 810 326 847 q 219 686 240 774 l 68 707 q 103 813 81 763 q 167 902 126 864 q 269 963 208 940 q 415 986 329 986 q 650 908 569 986 q 731 699 731 829 q 701 552 731 617 q 616 425 671 488 q 484 295 561 363 q 311 140 407 228 l 743 140 l 724 0 l 78 0 l 78 99 l 78 124 z "},"3":{"ha":822,"x_min":60,"x_max":746,"o":"m 219 285 q 272 151 229 190 q 407 111 314 111 q 536 150 489 111 q 583 274 583 189 q 540 392 583 356 q 411 428 496 428 l 307 428 l 307 568 l 418 568 q 554 674 538 568 q 560 743 564 703 q 511 824 551 799 q 407 850 471 850 q 281 815 324 850 q 218 700 239 779 l 68 721 q 102 823 79 775 q 165 908 125 871 q 265 965 206 944 q 408 986 324 986 q 549 965 489 986 q 647 910 608 944 q 705 829 686 875 q 724 732 724 783 q 590 510 724 579 q 710 415 674 475 q 746 279 746 354 q 662 56 746 138 q 410 -25 578 -25 q 243 3 310 -25 q 137 75 176 31 q 80 175 97 119 q 60 285 63 231 l 219 285 z "},"4":{"ha":822,"x_min":44,"x_max":768,"o":"m 490 753 l 208 354 l 490 354 l 490 753 m 493 960 l 642 960 l 642 354 l 768 354 l 749 226 l 642 226 l 642 0 l 490 0 l 490 226 l 44 226 l 44 339 l 493 960 z "},"5":{"ha":822,"x_min":82,"x_max":742,"o":"m 239 263 q 256 197 244 225 q 288 149 268 168 q 340 122 308 131 q 415 113 371 113 q 540 159 494 113 q 585 310 585 206 q 542 447 585 400 q 413 494 500 494 q 313 476 354 494 q 238 421 271 457 l 103 421 l 149 960 l 686 960 l 686 821 l 279 821 l 257 569 q 344 610 296 596 q 443 624 392 624 q 582 597 525 624 q 674 526 639 569 q 726 426 710 482 q 742 313 742 369 q 717 162 742 225 q 650 57 693 99 q 548 -5 607 15 q 421 -25 489 -25 q 178 45 263 -25 q 82 263 93 115 l 239 263 z "},"6":{"ha":822,"x_min":76,"x_max":756,"o":"m 418 104 q 550 153 499 104 q 601 301 601 203 q 562 440 601 386 q 429 493 522 493 q 354 481 389 493 q 294 444 319 469 q 254 383 268 419 q 244 296 240 346 q 256 224 244 258 q 288 163 267 189 q 342 120 310 136 q 418 104 374 104 m 592 747 q 573 788 582 771 q 551 816 564 804 q 522 835 539 828 q 482 847 506 843 q 417 849 454 853 q 282 757 328 842 q 231 517 236 672 q 331 594 274 569 q 464 621 389 619 q 592 599 538 621 q 683 535 647 576 q 738 435 719 493 q 756 304 756 376 q 729 162 756 224 q 657 58 703 100 q 550 -4 611 17 q 418 -25 489 -25 q 248 15 314 -25 q 144 119 182 56 q 91 262 106 183 q 76 417 76 340 q 106 685 76 576 q 185 861 135 794 q 302 957 235 928 q 446 986 369 986 q 652 929 583 986 q 743 754 721 872 l 597 733 l 592 747 z "},"7":{"ha":822,"x_min":61,"x_max":726,"o":"m 218 0 q 549 821 349 438 l 61 821 l 61 960 l 726 960 l 726 833 q 535 428 617 632 q 394 0 454 225 l 218 0 z "},"8":{"ha":822,"x_min":53,"x_max":769,"o":"m 210 265 q 258 145 210 189 q 411 101 306 101 q 565 147 515 101 q 614 268 614 192 q 603 331 614 303 q 569 381 593 360 q 507 413 546 401 q 411 425 468 425 q 313 412 351 425 q 251 377 274 399 q 219 326 228 356 q 210 265 210 297 m 228 707 q 272 591 228 628 q 411 554 315 554 q 549 593 507 554 q 590 710 590 632 q 581 768 590 740 q 551 817 572 796 q 495 850 529 838 q 411 863 461 863 q 326 849 361 863 q 269 815 290 836 q 238 765 247 793 q 228 707 228 738 m 211 493 q 114 577 150 521 q 78 717 78 633 q 97 822 78 772 q 158 907 117 871 q 261 965 199 943 q 410 986 324 986 q 562 965 499 986 q 665 906 625 943 q 724 820 706 869 q 742 715 742 771 q 706 578 742 632 q 608 496 669 524 q 668 461 639 482 q 720 412 697 440 q 756 347 743 383 q 769 265 769 311 q 680 54 769 133 q 410 -25 590 -25 q 140 54 228 -25 q 53 265 53 133 q 67 346 53 310 q 103 410 81 382 q 153 460 125 439 q 211 493 182 481 z "},"9":{"ha":822,"x_min":60,"x_max":742,"o":"m 390 465 q 463 476 429 465 q 521 512 496 488 q 560 573 546 536 q 574 660 574 610 q 560 736 572 700 q 527 799 549 772 q 474 842 506 826 q 400 857 442 857 q 267 806 318 857 q 217 660 217 756 q 226 584 217 619 q 255 522 235 549 q 308 481 275 496 q 390 465 342 465 m 232 226 q 278 135 244 164 q 390 107 313 107 q 539 188 493 107 q 586 446 585 268 q 354 338 500 338 q 133 424 206 338 q 60 657 60 511 q 83 790 60 729 q 151 894 107 850 q 258 962 196 938 q 400 986 321 986 q 570 943 504 986 q 674 833 636 900 q 727 686 713 767 q 742 531 742 606 q 719 274 742 379 q 653 101 697 168 q 545 5 610 35 q 394 -25 481 -25 q 169 35 247 -25 q 81 226 92 96 l 232 226 z "},"\u0000":{"ha":0,"x_min":0,"x_max":0,"o":""},"\t":{"ha":310,"x_min":0,"x_max":0,"o":""}," ":{"ha":310,"x_min":0,"x_max":0,"o":""},"!":{"ha":350,"x_min":92,"x_max":260,"o":"m 256 190 l 256 0 l 94 0 l 94 190 l 256 190 m 260 992 l 249 299 l 103 299 l 92 992 l 260 992 z "},"\"":{"ha":494,"x_min":51,"x_max":443,"o":"m 443 988 l 433 624 l 306 624 l 296 988 l 443 988 m 200 988 l 190 624 l 61 624 l 51 988 l 200 988 z "},"#":{"ha":822,"x_min":26,"x_max":793,"o":"m 529 593 l 344 593 l 303 349 l 488 349 l 529 593 m 26 232 l 26 349 l 167 349 l 207 593 l 72 593 l 72 710 l 226 710 l 264 942 l 401 942 l 363 710 l 547 710 l 585 942 l 721 942 l 683 710 l 793 710 l 793 593 l 665 593 l 625 349 l 744 349 l 744 232 l 604 232 l 567 0 l 431 0 l 468 232 l 283 232 l 246 0 l 110 0 l 147 232 l 26 232 z "},"$":{"ha":822,"x_min":47,"x_max":757,"o":"m 365 860 q 255 815 289 851 q 221 736 221 778 l 221 714 q 255 623 224 656 q 365 575 286 590 l 365 860 m 449 107 q 562 154 528 114 q 596 258 596 194 q 590 303 596 281 q 567 347 583 326 q 522 382 550 367 q 449 406 493 397 l 449 107 m 365 -21 q 225 10 283 -15 q 128 74 167 35 q 69 167 89 114 q 47 286 50 221 l 203 286 q 249 159 210 200 q 365 108 289 118 l 365 421 q 238 453 293 433 q 146 507 183 474 q 88 588 108 540 q 65 700 67 635 q 66 725 65 713 q 68 750 67 738 q 155 910 79 846 q 365 983 231 974 l 365 1104 l 449 1104 l 449 983 q 587 950 532 976 q 675 886 642 924 q 724 803 708 849 q 747 715 740 758 l 597 693 q 549 809 581 768 q 449 858 518 850 l 449 558 l 482 553 q 689 459 621 526 q 757 263 757 392 q 738 159 757 208 q 682 71 719 110 q 586 7 644 32 q 449 -22 528 -18 l 449 -161 l 365 -161 l 365 -21 z "},"%":{"ha":1311,"x_min":46,"x_max":1265,"o":"m 1015 89 q 1102 131 1072 89 q 1132 274 1132 172 q 1102 417 1132 374 q 1015 461 1072 461 q 931 418 960 461 q 901 274 901 375 q 931 130 901 171 q 1015 89 960 89 m 1015 -25 q 833 50 899 -25 q 767 274 767 125 q 785 407 767 350 q 838 501 804 464 q 917 558 871 539 q 1015 576 963 576 q 1196 501 1126 576 q 1265 274 1265 425 q 1246 136 1265 193 q 1192 44 1226 79 q 1113 -8 1158 8 q 1015 -25 1067 -25 m 335 0 l 819 960 l 975 960 l 489 0 l 335 0 m 294 494 q 381 537 351 494 q 410 681 410 579 q 381 824 410 781 q 294 868 351 868 q 210 824 239 868 q 181 681 181 781 q 209 536 181 578 q 294 494 238 494 m 294 381 q 113 455 179 381 q 46 681 46 529 q 65 814 46 757 q 117 908 83 871 q 196 965 150 946 q 294 983 242 983 q 475 908 406 983 q 544 681 544 832 q 524 540 544 597 q 470 448 504 483 q 390 397 436 413 q 294 381 344 381 z "},"&":{"ha":907,"x_min":46,"x_max":907,"o":"m 397 617 q 440 645 419 629 q 475 681 460 661 q 500 724 490 700 q 510 776 510 747 q 482 857 510 829 q 407 885 454 885 q 301 771 301 885 q 310 721 301 744 q 333 677 319 697 q 360 640 346 657 q 386 611 375 624 l 397 617 m 331 460 q 242 388 279 431 q 204 285 204 346 q 215 213 204 246 q 249 156 225 179 q 313 118 274 132 q 413 104 353 104 q 511 122 471 104 q 579 167 551 139 l 331 460 m 661 74 q 550 5 614 32 q 400 -22 486 -22 q 228 3 296 -22 q 119 68 160 28 q 62 160 78 108 q 46 264 46 211 q 64 363 46 319 q 112 441 82 407 q 180 501 142 475 q 258 551 218 528 q 189 650 221 593 q 157 774 157 707 q 175 864 157 822 q 225 935 193 906 q 303 983 257 965 q 403 1000 349 1000 q 570 949 507 1000 q 644 817 633 899 q 647 794 647 806 q 647 772 647 783 q 628 692 644 728 q 585 626 611 656 q 526 574 560 597 q 457 529 492 550 l 665 283 q 692 381 685 332 q 701 483 700 429 l 844 483 q 819 319 843 397 q 756 176 796 242 l 907 0 l 724 0 l 661 74 z "},"'":{"ha":260,"x_min":51,"x_max":208,"o":"m 208 988 l 199 624 l 61 624 l 51 988 l 208 988 z "},"(":{"ha":390,"x_min":64,"x_max":378,"o":"m 229 -172 q 107 102 150 -51 q 64 424 64 256 q 74 579 64 500 q 104 735 83 658 q 156 883 125 811 q 229 1019 188 956 l 378 1019 q 263 729 296 875 q 229 424 229 583 q 263 117 229 261 q 378 -172 296 -28 l 229 -172 z "},")":{"ha":390,"x_min":11,"x_max":325,"o":"m 11 -172 q 126 117 92 -28 q 161 424 161 261 q 126 729 161 585 q 11 1019 90 874 l 161 1019 q 284 736 243 890 q 325 424 325 582 q 281 101 325 253 q 161 -172 238 -51 l 11 -172 z "},"*":{"ha":560,"x_min":35,"x_max":525,"o":"m 35 771 l 89 897 l 235 817 l 207 992 l 354 992 l 326 817 l 472 897 l 525 771 l 356 726 l 490 586 l 376 506 l 281 660 l 185 506 l 71 586 l 206 726 l 35 771 z "},"+":{"ha":822,"x_min":85,"x_max":738,"o":"m 85 404 l 85 542 l 340 542 l 340 817 l 482 817 l 482 542 l 738 542 l 738 404 l 482 404 l 482 129 l 340 129 l 340 404 l 85 404 z "},",":{"ha":321,"x_min":50,"x_max":253,"o":"m 253 194 l 172 -132 l 50 -132 l 94 194 l 253 194 z "},"-":{"ha":542,"x_min":65,"x_max":476,"o":"m 476 489 l 476 332 l 65 332 l 65 489 l 476 489 z "},".":{"ha":321,"x_min":76,"x_max":244,"o":"m 244 193 l 244 0 l 76 0 l 76 193 l 244 193 z "},"/":{"ha":496,"x_min":10,"x_max":486,"o":"m 10 0 l 328 1019 l 486 1019 l 168 0 l 10 0 z "},":":{"ha":321,"x_min":76,"x_max":244,"o":"m 244 722 l 244 529 l 76 529 l 76 722 l 244 722 m 244 193 l 244 0 l 76 0 l 76 193 l 244 193 z "},";":{"ha":321,"x_min":50,"x_max":253,"o":"m 253 194 l 172 -132 l 50 -132 l 94 194 l 253 194 m 244 722 l 244 529 l 76 529 l 76 722 l 244 722 z "},"<":{"ha":822,"x_min":104,"x_max":733,"o":"m 733 817 l 733 668 l 288 472 l 733 276 l 733 125 l 104 410 l 104 532 l 733 817 z "},"=":{"ha":822,"x_min":108,"x_max":714,"o":"m 714 697 l 714 558 l 108 558 l 108 697 l 714 697 m 714 389 l 714 250 l 108 250 l 108 389 l 714 389 z "},">":{"ha":822,"x_min":89,"x_max":718,"o":"m 533 468 l 89 667 l 89 817 l 718 532 l 718 410 l 89 125 l 89 275 l 533 468 z "},"?":{"ha":704,"x_min":21,"x_max":656,"o":"m 421 190 l 421 0 l 258 0 l 258 190 l 421 190 m 263 326 q 273 395 263 364 q 301 452 283 426 q 340 501 318 478 q 385 549 361 525 l 425 589 q 472 650 453 617 q 492 735 492 683 q 455 838 492 801 q 351 875 418 875 q 228 838 269 875 q 167 718 186 801 l 21 738 q 54 841 31 792 q 117 928 78 890 q 215 987 157 965 q 353 1008 272 1008 q 576 938 497 1008 q 656 754 656 868 q 635 642 656 688 q 586 564 615 596 l 501 479 q 442 406 465 443 q 418 319 418 368 l 418 299 l 263 299 l 263 326 z "},"@":{"ha":1360,"x_min":67,"x_max":1300,"o":"m 810 342 q 813 358 811 351 q 811 357 814 364 l 813 386 q 813 403 813 394 q 813 421 814 413 q 776 501 807 474 q 696 529 746 529 q 624 511 657 529 q 565 459 590 493 q 526 376 540 425 q 513 265 513 328 q 544 147 513 185 q 625 108 575 108 q 697 124 667 108 q 749 164 728 139 q 782 222 769 189 q 801 293 794 256 l 810 342 m 1132 -71 q 1064 -161 1107 -119 q 962 -234 1021 -203 q 826 -283 903 -265 q 658 -301 750 -301 q 406 -258 517 -301 q 221 -139 296 -215 q 106 44 146 -62 q 67 275 67 150 q 126 568 67 442 q 278 779 185 694 q 487 906 371 864 q 717 949 603 949 q 948 915 842 949 q 1133 815 1054 881 q 1256 651 1211 749 q 1300 428 1300 554 q 1272 233 1300 315 q 1199 99 1244 151 q 1094 20 1153 46 q 976 -6 1036 -6 q 862 17 907 -6 q 806 103 817 40 q 708 10 760 36 q 594 -15 657 -15 q 491 6 535 -15 q 418 64 447 28 q 375 149 389 100 q 361 250 361 197 q 385 408 361 335 q 451 533 408 481 q 553 616 493 586 q 683 646 613 646 q 778 623 735 646 q 853 549 821 600 q 860 590 856 568 q 868 631 865 611 l 1010 631 l 931 179 q 929 160 929 174 q 985 101 929 101 q 1054 119 1019 101 q 1115 177 1089 138 q 1158 277 1142 217 q 1175 424 1175 338 q 1142 606 1175 528 q 1048 734 1108 683 q 903 810 988 785 q 717 836 818 836 q 511 795 606 836 q 347 681 417 754 q 238 506 278 608 q 199 281 199 403 q 228 92 199 178 q 317 -57 258 6 q 464 -154 376 -119 q 665 -189 551 -189 q 777 -181 728 -189 q 864 -156 826 -172 q 930 -119 901 -140 q 982 -71 958 -97 l 1132 -71 z "},"A":{"ha":953,"x_min":15,"x_max":938,"o":"m 393 992 l 560 992 l 938 0 l 758 0 l 665 253 l 281 253 l 189 0 l 15 0 l 393 992 m 619 393 l 472 801 l 326 393 l 619 393 z "},"B":{"ha":889,"x_min":106,"x_max":838,"o":"m 106 992 l 449 992 q 626 972 557 992 q 737 916 696 951 q 793 833 778 881 q 808 731 808 785 q 781 615 808 668 q 679 526 753 561 q 757 479 726 506 q 806 423 788 453 q 831 360 824 393 q 838 294 838 328 q 819 179 838 233 q 757 85 800 125 q 644 23 714 46 q 474 0 575 0 l 106 0 l 106 992 m 468 585 q 606 621 567 585 q 644 725 644 657 q 599 827 644 796 q 443 858 554 858 l 268 858 l 268 585 l 468 585 m 468 135 q 567 146 528 135 q 630 178 607 157 q 663 228 653 199 q 672 293 672 257 q 630 408 672 368 q 483 447 588 447 l 268 447 l 268 135 l 468 135 z "},"C":{"ha":989,"x_min":72,"x_max":936,"o":"m 936 335 q 899 192 928 257 q 818 78 869 126 q 693 2 767 29 q 522 -25 619 -25 q 331 11 415 -25 q 190 115 247 47 q 102 278 132 182 q 72 494 72 375 q 105 714 72 617 q 197 878 138 811 q 340 981 257 946 q 524 1017 424 1017 q 685 993 617 1017 q 801 926 753 969 q 877 821 849 882 q 919 685 906 760 l 754 661 q 726 750 743 711 q 683 816 710 789 q 617 858 656 843 q 524 872 578 872 q 406 846 457 872 q 319 770 354 819 q 265 651 283 721 q 247 496 247 582 q 266 339 247 408 q 321 220 285 269 q 408 145 357 171 q 524 119 458 119 q 623 135 582 119 q 692 178 664 150 q 735 245 719 206 q 758 335 751 285 l 936 335 z "},"D":{"ha":1008,"x_min":106,"x_max":936,"o":"m 436 143 q 585 168 524 143 q 687 240 647 193 q 744 353 726 288 q 763 500 763 418 q 693 756 763 664 q 465 849 624 849 l 274 849 l 274 143 l 436 143 m 464 992 q 661 962 574 992 q 810 871 749 932 q 903 717 871 810 q 936 501 936 625 q 901 284 936 378 q 801 127 867 190 q 642 32 736 64 q 431 0 549 0 l 106 0 l 106 992 l 464 992 z "},"E":{"ha":832,"x_min":106,"x_max":792,"o":"m 106 992 l 765 992 l 765 847 l 274 847 l 274 583 l 738 583 l 738 438 l 274 438 l 274 144 l 792 144 l 772 0 l 106 0 l 106 992 z "},"F":{"ha":797,"x_min":106,"x_max":739,"o":"m 739 992 l 739 847 l 274 847 l 274 567 l 711 567 l 711 421 l 274 421 l 274 0 l 106 0 l 106 992 l 739 992 z "},"G":{"ha":1001,"x_min":72,"x_max":926,"o":"m 926 526 l 926 118 q 746 11 850 47 q 536 -25 642 -25 q 334 12 421 -25 q 189 116 247 49 q 101 279 131 183 q 72 494 72 375 q 104 712 72 615 q 194 876 136 808 q 336 981 253 944 q 522 1017 419 1017 q 680 994 613 1017 q 794 931 747 971 q 869 837 840 890 q 910 722 897 783 l 744 699 q 717 773 733 740 q 676 828 701 806 q 613 862 650 850 q 522 874 575 874 q 401 847 453 874 q 314 769 349 819 q 263 650 279 719 q 246 496 246 581 q 263 339 246 408 q 315 220 279 269 q 406 144 351 171 q 539 118 461 118 q 664 133 608 118 q 771 183 719 147 l 771 385 l 551 385 l 551 526 l 926 526 z "},"H":{"ha":993,"x_min":106,"x_max":888,"o":"m 106 992 l 274 992 l 274 590 l 719 590 l 719 992 l 888 992 l 888 0 l 719 0 l 719 435 l 274 435 l 274 0 l 106 0 l 106 992 z "},"I":{"ha":378,"x_min":106,"x_max":274,"o":"m 106 992 l 274 992 l 274 0 l 106 0 l 106 992 z "},"J":{"ha":857,"x_min":39,"x_max":761,"o":"m 207 319 q 224 237 213 274 q 259 174 236 200 q 317 134 282 149 q 406 119 353 119 q 550 178 507 119 q 593 344 593 236 l 593 992 l 761 992 l 761 333 q 666 65 761 156 q 408 -25 571 -25 q 144 58 238 -25 q 39 319 51 142 l 207 319 z "},"K":{"ha":919,"x_min":106,"x_max":913,"o":"m 106 992 l 274 992 l 274 556 l 689 992 l 875 992 l 533 619 l 913 0 l 722 0 l 415 511 l 274 368 l 274 0 l 106 0 l 106 992 z "},"L":{"ha":796,"x_min":106,"x_max":765,"o":"m 274 992 l 274 146 l 765 146 l 744 0 l 106 0 l 106 992 l 274 992 z "},"M":{"ha":1185,"x_min":106,"x_max":1079,"o":"m 106 992 l 310 992 l 592 203 l 882 992 l 1079 992 l 1079 0 l 925 0 l 925 721 l 653 0 l 519 0 l 257 719 l 257 0 l 106 0 l 106 992 z "},"N":{"ha":986,"x_min":106,"x_max":881,"o":"m 106 992 l 261 992 l 717 275 l 717 992 l 881 992 l 881 0 l 725 0 l 268 714 l 268 0 l 106 0 l 106 992 z "},"O":{"ha":1072,"x_min":72,"x_max":1000,"o":"m 538 -25 q 345 10 431 -25 q 199 113 260 46 q 105 276 138 179 q 72 494 72 372 q 106 714 72 617 q 200 878 139 811 q 347 981 261 946 q 538 1017 433 1017 q 729 981 643 1017 q 875 879 815 946 q 967 716 935 813 q 1000 497 1000 619 q 968 277 1000 374 q 876 113 936 181 q 731 10 817 46 q 538 -25 646 -25 m 536 119 q 753 220 679 119 q 826 496 826 321 q 808 653 826 583 q 753 771 789 722 q 663 846 717 819 q 536 872 608 872 q 410 846 464 872 q 319 771 356 819 q 264 653 282 722 q 246 496 246 583 q 319 220 246 321 q 536 119 392 119 z "},"P":{"ha":879,"x_min":106,"x_max":824,"o":"m 106 992 l 449 992 q 634 967 561 992 q 749 900 707 942 q 807 803 790 858 q 824 689 824 749 q 807 567 824 625 q 748 465 790 508 q 633 395 706 421 q 451 369 561 369 l 271 369 l 271 0 l 106 0 l 106 992 m 447 510 q 552 522 511 510 q 617 558 593 535 q 649 613 640 581 q 658 685 658 644 q 649 758 658 726 q 615 810 639 789 q 549 842 590 831 q 446 853 508 853 l 271 853 l 271 510 l 447 510 z "},"Q":{"ha":1074,"x_min":72,"x_max":1000,"o":"m 649 381 l 765 238 q 826 496 826 331 q 808 651 826 582 q 754 770 790 721 q 664 846 718 819 q 538 872 610 872 q 409 846 464 872 q 318 770 354 819 q 264 651 282 721 q 246 496 246 582 q 321 213 246 310 q 554 117 396 117 q 615 124 586 117 q 667 144 643 132 l 544 293 l 649 381 m 763 26 q 656 -12 711 1 q 538 -25 600 -25 q 342 11 429 -25 q 196 115 256 47 q 104 278 136 182 q 72 494 72 375 q 105 713 72 615 q 199 877 138 810 q 345 981 260 944 q 538 1017 431 1017 q 732 981 646 1017 q 877 877 818 944 q 968 713 936 810 q 1000 497 1000 617 q 967 273 1000 369 q 869 110 933 176 l 990 -37 l 888 -126 l 763 26 z "},"R":{"ha":893,"x_min":106,"x_max":865,"o":"m 457 533 q 551 545 514 533 q 610 578 589 557 q 641 631 632 600 q 650 699 650 661 q 640 762 650 733 q 605 810 629 790 q 540 842 581 831 q 440 853 500 853 l 271 853 l 271 533 l 457 533 m 444 992 q 630 965 557 992 q 745 897 703 939 q 804 803 788 854 q 821 701 821 751 q 783 539 821 604 q 660 433 744 474 l 865 0 l 682 0 l 504 394 q 478 392 492 393 q 449 392 464 392 l 271 392 l 271 0 l 106 0 l 106 992 l 444 992 z "},"S":{"ha":894,"x_min":46,"x_max":838,"o":"m 215 303 q 285 161 226 206 q 461 117 344 117 q 557 129 518 117 q 619 163 596 142 q 653 212 643 183 q 663 272 663 240 q 656 319 663 296 q 631 361 649 342 q 582 395 613 381 q 504 418 551 410 l 378 442 q 244 476 303 456 q 147 531 186 497 q 87 615 107 565 q 67 735 67 664 q 95 858 67 806 q 174 947 124 911 q 292 999 224 982 q 442 1017 361 1017 q 614 993 544 1017 q 726 931 683 969 q 792 843 769 893 q 822 739 814 793 l 664 714 q 597 838 644 797 q 444 878 549 878 q 345 867 385 878 q 281 838 306 857 q 247 795 257 819 q 236 744 236 771 q 272 647 236 679 q 396 597 307 615 l 533 571 q 764 472 690 542 q 838 269 838 401 q 815 153 838 207 q 744 60 792 100 q 627 -2 697 21 q 464 -25 557 -25 q 165 55 274 -25 q 46 303 57 135 l 215 303 z "},"T":{"ha":847,"x_min":26,"x_max":821,"o":"m 340 846 l 26 846 l 26 992 l 821 992 l 821 846 l 508 846 l 508 0 l 340 0 l 340 846 z "},"U":{"ha":956,"x_min":90,"x_max":865,"o":"m 257 992 l 257 397 q 308 188 257 257 q 479 119 358 119 q 648 188 599 119 q 697 397 697 257 l 697 992 l 865 992 l 865 397 q 838 202 865 282 q 758 72 810 122 q 636 -2 707 21 q 478 -25 565 -25 q 189 77 288 -25 q 90 401 90 179 l 90 992 l 257 992 z "},"V":{"ha":947,"x_min":15,"x_max":931,"o":"m 203 992 l 475 228 l 751 992 l 931 992 l 554 0 l 393 0 l 15 992 l 203 992 z "},"W":{"ha":1319,"x_min":15,"x_max":1304,"o":"m 204 992 l 388 239 l 576 986 l 756 986 l 947 240 l 1125 992 l 1304 992 l 1031 0 l 863 0 l 661 781 l 463 0 l 300 0 l 15 992 l 204 992 z "},"X":{"ha":918,"x_min":13,"x_max":907,"o":"m 360 524 l 38 992 l 229 992 l 457 644 l 688 992 l 868 992 l 549 517 l 907 0 l 714 0 l 450 392 l 194 0 l 13 0 l 360 524 z "},"Y":{"ha":882,"x_min":17,"x_max":865,"o":"m 361 413 l 17 992 l 204 992 l 443 561 l 688 992 l 865 992 l 528 413 l 528 0 l 361 0 l 361 413 z "},"Z":{"ha":814,"x_min":38,"x_max":789,"o":"m 38 125 l 571 847 l 47 847 l 47 992 l 769 992 l 769 865 l 238 146 l 789 146 l 769 0 l 38 0 l 38 125 z "},"[":{"ha":428,"x_min":103,"x_max":414,"o":"m 414 1019 l 414 885 l 263 885 l 263 -37 l 414 -37 l 414 -172 l 103 -172 l 103 1019 l 414 1019 z "},"\\":{"ha":496,"x_min":10,"x_max":486,"o":"m 486 0 l 329 0 l 10 1019 l 165 1019 l 486 0 z "},"]":{"ha":428,"x_min":14,"x_max":326,"o":"m 167 -37 l 167 885 l 14 885 l 14 1019 l 326 1019 l 326 -172 l 14 -172 l 14 -37 l 167 -37 z "},"^":{"ha":822,"x_min":64,"x_max":757,"o":"m 475 989 l 757 415 l 592 415 l 410 803 l 226 415 l 64 415 l 346 989 l 475 989 z "},"_":{"ha":694,"x_min":0,"x_max":694,"o":"m 694 -171 l 694 -243 l 0 -243 l 0 -171 l 694 -171 z "},"`":{"ha":560,"x_min":106,"x_max":453,"o":"m 290 1029 l 453 824 l 304 824 l 106 1029 l 290 1029 z "},"a":{"ha":763,"x_min":44,"x_max":679,"o":"m 424 338 q 309 322 353 333 q 242 294 265 311 q 210 253 218 276 q 203 204 203 231 q 233 131 203 157 q 321 104 263 104 q 475 157 425 104 q 525 300 525 210 l 525 342 l 424 338 m 528 94 q 429 14 488 46 q 288 -18 371 -18 q 192 -5 236 -18 q 115 35 147 8 q 63 102 82 61 q 44 199 44 143 q 78 320 44 274 q 165 393 111 367 q 285 430 218 419 q 418 443 351 440 l 525 449 l 525 479 q 485 592 525 561 q 382 624 446 624 q 273 599 308 624 q 226 526 238 574 l 82 542 q 178 696 101 647 q 388 744 254 744 q 530 722 474 744 q 619 661 586 700 q 666 569 653 622 q 679 451 679 515 l 679 0 l 528 0 l 528 94 z "},"b":{"ha":847,"x_min":90,"x_max":782,"o":"m 246 338 q 263 224 247 268 q 305 153 279 179 q 364 117 331 126 q 433 107 397 107 q 506 121 472 107 q 564 165 539 135 q 603 243 589 194 q 617 363 617 292 q 602 478 617 431 q 564 556 588 526 q 508 600 540 586 q 440 614 475 614 q 352 597 389 614 q 292 550 315 581 q 257 477 268 519 q 246 383 246 435 l 246 349 l 246 338 m 247 992 l 247 628 q 347 715 290 685 q 478 744 403 744 q 613 717 556 744 q 707 639 669 689 q 763 519 744 589 q 782 364 782 449 q 760 203 782 275 q 696 82 738 132 q 596 5 654 32 q 465 -22 538 -22 q 344 3 400 -22 q 243 86 289 28 l 243 0 l 90 0 l 90 992 l 247 992 z "},"c":{"ha":783,"x_min":65,"x_max":726,"o":"m 726 253 q 634 51 713 124 q 410 -22 556 -22 q 258 5 322 -22 q 150 82 193 32 q 86 202 107 132 q 65 358 65 272 q 89 516 65 444 q 158 638 113 588 q 268 717 203 689 q 417 744 333 744 q 546 724 493 744 q 633 670 599 704 q 688 592 668 636 q 715 499 707 547 l 558 475 q 516 576 547 536 q 411 617 485 617 q 324 594 358 617 q 268 537 289 572 q 238 456 247 501 q 229 363 229 410 q 239 261 229 308 q 269 180 249 214 q 325 126 290 146 q 410 106 360 106 q 519 144 482 106 q 567 253 557 182 l 726 253 z "},"d":{"ha":846,"x_min":65,"x_max":756,"o":"m 600 376 q 585 491 600 444 q 545 565 571 538 q 485 603 519 592 q 414 615 451 615 q 278 553 326 615 q 231 363 231 490 q 244 244 231 293 q 281 165 257 196 q 338 121 306 135 q 407 107 369 107 q 547 163 493 107 q 600 339 600 219 l 600 376 m 601 100 q 501 8 557 39 q 369 -22 444 -22 q 235 6 292 -22 q 140 84 178 33 q 84 205 103 135 q 65 360 65 275 q 85 508 65 439 q 142 627 104 576 q 234 708 179 678 q 361 742 289 739 q 389 742 375 743 q 418 740 403 742 q 512 713 467 735 q 599 642 557 692 l 599 992 l 756 992 l 756 0 l 601 0 l 601 100 z "},"e":{"ha":806,"x_min":65,"x_max":742,"o":"m 732 214 q 636 40 713 101 q 417 -22 560 -22 q 155 77 244 -22 q 65 357 65 176 q 91 522 65 450 q 163 644 117 594 q 274 719 210 693 q 417 744 339 744 q 561 719 500 744 q 663 647 622 693 q 722 535 703 600 q 742 392 742 471 l 742 322 l 224 322 q 274 163 226 224 q 417 101 321 101 q 529 131 492 101 q 579 214 567 160 l 732 214 m 588 432 q 546 572 588 521 q 413 624 504 624 q 279 572 325 624 q 226 432 233 519 l 588 432 z "},"f":{"ha":494,"x_min":22,"x_max":507,"o":"m 22 597 l 22 722 l 135 722 l 135 764 q 151 866 135 822 q 198 940 168 910 q 269 985 228 969 q 358 1001 310 1000 q 375 1002 367 1003 q 394 1001 383 1001 q 450 996 424 999 q 507 983 476 993 l 483 865 q 400 878 439 878 q 324 853 356 878 q 293 768 293 828 l 293 722 l 468 722 l 468 597 l 293 597 l 293 0 l 135 0 l 135 597 l 22 597 z "},"g":{"ha":846,"x_min":65,"x_max":757,"o":"m 600 388 q 584 499 600 454 q 542 569 568 543 q 483 605 517 594 q 414 615 449 615 q 278 556 326 615 q 231 381 231 496 q 245 270 231 315 q 283 197 260 225 q 339 157 307 169 q 407 144 371 144 q 554 206 508 144 q 600 379 600 267 l 600 388 m 253 -56 q 400 -160 269 -160 l 436 -160 q 521 -138 489 -158 q 570 -85 553 -118 q 593 -8 588 -51 q 599 83 599 35 l 599 132 q 369 18 518 18 q 234 45 292 18 q 139 120 176 72 q 83 235 101 168 q 65 379 65 301 q 85 520 65 454 q 144 635 106 586 q 240 713 183 685 q 371 743 297 742 q 421 740 393 744 q 517 710 471 733 q 603 635 563 688 l 603 722 l 757 722 l 757 100 q 739 -65 757 7 q 681 -185 721 -136 q 578 -260 642 -235 q 422 -285 514 -285 q 183 -228 260 -285 q 94 -56 107 -171 l 253 -56 z "},"h":{"ha":807,"x_min":90,"x_max":724,"o":"m 247 992 l 247 622 q 353 715 293 685 q 482 744 414 744 q 724 478 724 744 l 724 0 l 565 0 l 565 453 q 533 576 565 540 q 439 611 501 611 q 360 596 396 611 q 300 556 325 581 q 261 498 275 531 q 247 431 247 465 l 247 0 l 90 0 l 90 992 l 247 992 z "},"i":{"ha":342,"x_min":89,"x_max":253,"o":"m 253 992 l 253 835 l 89 835 l 89 992 l 253 992 m 250 722 l 250 0 l 92 0 l 92 722 l 250 722 z "},"j":{"ha":342,"x_min":-108,"x_max":253,"o":"m -85 -114 q 4 -126 -43 -126 q 74 -92 57 -126 q 92 10 92 -57 l 92 722 l 250 722 l 250 -6 q 199 -192 250 -128 q 32 -257 149 -257 q -108 -235 -42 -257 l -85 -114 m 253 992 l 253 835 l 89 835 l 89 992 l 253 992 z "},"k":{"ha":764,"x_min":90,"x_max":761,"o":"m 244 992 l 244 443 l 553 722 l 738 722 l 476 476 l 761 0 l 588 0 l 363 386 l 244 281 l 244 0 l 90 0 l 90 992 l 244 992 z "},"l":{"ha":342,"x_min":92,"x_max":250,"o":"m 250 992 l 250 0 l 92 0 l 92 992 l 250 992 z "},"m":{"ha":1206,"x_min":90,"x_max":1122,"o":"m 243 722 l 243 618 q 421 739 318 722 q 476 743 447 743 q 596 706 550 740 q 663 614 642 672 q 899 744 758 744 q 1068 681 1014 744 q 1122 476 1122 617 l 1122 0 l 964 0 l 964 433 q 957 521 964 486 q 937 576 950 556 q 903 603 924 596 q 856 611 882 611 q 782 596 814 611 q 728 556 750 581 q 696 499 707 531 q 685 435 685 468 l 685 0 l 526 0 l 526 449 q 498 576 526 542 q 419 611 469 611 q 369 602 399 611 q 313 572 340 593 q 267 517 286 551 q 247 432 247 482 l 247 0 l 90 0 l 90 722 l 243 722 z "},"n":{"ha":807,"x_min":90,"x_max":724,"o":"m 243 722 l 243 617 q 352 714 292 683 q 482 744 413 744 q 724 478 724 744 l 724 0 l 565 0 l 565 453 q 533 576 565 540 q 439 611 501 611 q 362 597 397 611 q 301 557 326 582 q 262 499 276 532 q 247 431 247 467 l 247 0 l 90 0 l 90 722 l 243 722 z "},"o":{"ha":846,"x_min":65,"x_max":779,"o":"m 422 106 q 569 174 522 106 q 615 363 615 243 q 569 549 615 481 q 422 617 522 617 q 276 548 322 617 q 229 363 229 479 q 274 175 229 244 q 422 106 319 106 m 421 -22 q 158 78 251 -22 q 65 361 65 178 q 90 518 65 447 q 160 639 114 589 q 272 717 206 689 q 424 744 339 744 q 576 716 510 744 q 688 638 643 688 q 756 517 733 588 q 779 364 779 447 q 753 198 779 269 q 678 77 726 126 q 565 3 631 28 q 421 -22 500 -22 z "},"p":{"ha":847,"x_min":89,"x_max":782,"o":"m 89 722 l 243 722 l 243 622 q 345 713 288 682 q 478 744 403 744 q 611 717 554 744 q 706 640 668 690 q 763 520 744 590 q 782 364 782 450 q 760 205 782 276 q 697 83 738 133 q 597 5 656 32 q 465 -22 539 -22 q 351 0 407 -22 q 247 82 296 22 l 247 -269 l 89 -269 l 89 722 m 246 349 q 261 231 246 278 q 302 157 276 185 q 362 118 328 129 q 433 107 396 107 q 506 121 472 107 q 564 165 539 135 q 603 244 589 196 q 617 363 617 293 q 602 481 617 433 q 563 559 588 529 q 507 601 539 589 q 440 614 475 614 q 301 558 356 614 q 246 383 246 503 l 246 349 z "},"q":{"ha":847,"x_min":65,"x_max":757,"o":"m 601 376 q 587 491 601 444 q 547 565 572 538 q 486 603 521 592 q 414 615 451 615 q 280 553 328 615 q 232 363 232 490 q 245 244 232 293 q 282 165 258 196 q 338 121 306 135 q 407 107 369 107 q 548 163 494 107 q 601 339 601 219 l 601 376 m 599 96 q 517 18 564 47 q 411 -18 469 -11 q 378 -21 394 -21 q 346 -19 363 -21 q 222 14 275 -15 q 135 92 169 43 q 83 210 100 142 q 65 360 65 278 q 84 508 65 439 q 140 627 103 576 q 233 708 178 678 q 363 742 289 739 q 421 740 394 744 q 517 710 471 733 q 603 635 563 688 l 603 722 l 757 722 l 757 -269 l 599 -269 l 599 96 z "},"r":{"ha":546,"x_min":90,"x_max":517,"o":"m 243 722 l 243 615 q 333 703 281 672 q 446 733 386 733 q 485 732 469 733 q 517 728 501 731 l 499 583 q 465 589 483 588 q 428 590 447 590 q 350 576 383 590 q 294 538 317 561 q 259 484 271 514 q 247 424 247 454 l 247 0 l 90 0 l 90 722 l 243 722 z "},"s":{"ha":736,"x_min":47,"x_max":681,"o":"m 199 221 q 218 162 203 185 q 256 125 233 139 q 310 106 279 111 q 375 101 340 101 q 489 125 454 101 q 524 194 524 149 q 502 256 524 231 q 414 292 481 281 q 263 321 328 307 q 153 359 197 335 q 86 422 108 383 q 64 525 64 460 q 86 616 64 575 q 148 685 108 657 q 242 729 188 714 q 363 744 297 744 q 501 728 446 744 q 592 682 557 711 q 644 615 626 653 q 672 536 663 578 l 531 517 q 480 597 514 571 q 367 624 446 624 q 292 615 321 624 q 245 594 263 607 q 222 567 228 582 q 215 536 215 551 q 221 497 215 513 q 241 472 226 482 q 281 456 256 463 q 343 442 306 449 l 433 426 q 553 394 506 414 q 630 347 601 375 q 669 281 658 318 q 681 197 681 243 q 606 38 681 99 q 378 -22 531 -22 q 258 -10 315 -22 q 154 29 200 1 q 80 103 108 57 q 47 221 51 150 l 199 221 z "},"t":{"ha":504,"x_min":19,"x_max":492,"o":"m 19 597 l 19 722 l 133 722 l 133 917 l 290 917 l 290 722 l 469 722 l 469 597 l 290 597 l 290 219 q 313 139 290 164 q 381 114 336 114 q 426 117 404 114 q 468 126 447 119 l 492 8 q 347 -14 425 -14 q 181 48 228 -14 q 133 233 133 110 l 133 597 l 19 597 z "},"u":{"ha":797,"x_min":85,"x_max":708,"o":"m 242 722 l 242 268 q 272 144 242 178 q 363 111 301 111 q 430 124 396 111 q 490 160 464 136 q 533 217 517 183 q 550 292 550 250 l 550 722 l 708 722 l 708 0 l 554 0 l 554 106 q 446 8 504 39 q 321 -22 388 -22 q 140 43 194 -22 q 85 243 85 108 l 85 722 l 242 722 z "},"v":{"ha":756,"x_min":10,"x_max":746,"o":"m 193 722 l 381 178 l 571 722 l 746 722 l 458 0 l 296 0 l 10 722 l 193 722 z "},"w":{"ha":1046,"x_min":10,"x_max":1036,"o":"m 182 722 l 304 194 l 457 717 l 601 717 l 749 194 l 871 722 l 1036 722 l 825 0 l 668 0 l 522 525 l 375 0 l 219 0 l 10 722 l 182 722 z "},"x":{"ha":729,"x_min":14,"x_max":717,"o":"m 38 722 l 224 722 l 371 492 l 529 722 l 694 722 l 460 382 l 717 0 l 533 0 l 361 264 l 186 0 l 14 0 l 276 375 l 38 722 z "},"y":{"ha":757,"x_min":10,"x_max":746,"o":"m 99 -128 q 178 -140 133 -140 q 243 -120 219 -140 q 288 -44 267 -100 l 314 25 l 10 722 l 193 722 l 392 201 l 574 722 l 746 722 l 458 -7 q 411 -119 433 -71 q 361 -201 389 -168 q 295 -252 333 -235 q 201 -269 257 -269 q 135 -265 165 -269 q 69 -249 104 -260 l 99 -128 z "},"z":{"ha":672,"x_min":44,"x_max":649,"o":"m 431 597 l 53 597 l 53 722 l 629 722 l 629 611 l 244 125 l 649 125 l 631 0 l 44 0 l 44 111 l 431 597 z "},"{":{"ha":431,"x_min":35,"x_max":424,"o":"m 133 831 q 149 926 133 889 q 196 983 165 963 q 268 1012 226 1004 q 363 1019 310 1019 l 424 1019 l 424 888 l 360 888 q 298 860 313 888 q 283 792 283 832 l 283 572 q 267 481 283 519 q 199 424 251 442 q 265 373 246 408 q 283 293 283 338 l 283 56 q 298 -12 283 15 q 360 -40 313 -40 l 424 -40 l 424 -172 l 363 -172 q 268 -165 310 -172 q 196 -136 226 -157 q 149 -78 165 -115 q 133 17 133 -42 l 133 249 q 113 329 133 301 q 43 357 93 357 l 35 357 l 35 490 l 43 490 q 113 517 92 490 q 133 590 133 544 l 133 831 z "},"|":{"ha":350,"x_min":100,"x_max":250,"o":"m 250 1019 l 250 -172 l 100 -172 l 100 1019 l 250 1019 z "},"}":{"ha":431,"x_min":7,"x_max":396,"o":"m 297 590 q 318 517 297 544 q 388 490 339 490 l 396 490 l 396 357 l 388 357 q 317 329 338 357 q 297 249 297 301 l 297 17 q 281 -78 297 -42 q 235 -136 265 -115 q 162 -165 204 -157 q 68 -172 119 -172 l 7 -172 l 7 -40 l 71 -40 q 133 -12 118 -40 q 147 56 147 15 l 147 293 q 166 373 147 338 q 232 424 185 408 q 163 481 179 442 q 147 572 147 519 l 147 792 q 133 860 147 832 q 71 888 118 888 l 7 888 l 7 1019 l 68 1019 q 162 1012 119 1019 q 235 983 204 1004 q 281 926 265 963 q 297 831 297 889 l 297 590 z "},"~":{"ha":822,"x_min":50,"x_max":769,"o":"m 50 331 q 104 537 50 475 q 263 599 158 599 q 342 579 304 599 q 414 537 379 560 q 481 494 449 514 q 544 475 513 475 q 608 502 588 475 q 629 589 629 529 l 769 589 q 715 382 769 443 q 560 321 661 321 q 487 338 522 321 q 418 377 451 356 q 354 418 385 399 q 296 443 324 438 q 257 440 275 447 q 197 361 200 436 q 134 349 165 356 q 74 331 103 342 l 50 331 z "}," ":{"ha":310,"x_min":0,"x_max":0,"o":""},"¡":{"ha":350,"x_min":90,"x_max":260,"o":"m 256 722 l 256 531 l 94 531 l 94 722 l 256 722 m 247 422 l 260 -269 l 90 -269 l 101 422 l 247 422 z "},"¢":{"ha":822,"x_min":89,"x_max":753,"o":"m 389 733 q 321 701 347 725 q 278 644 294 678 q 256 571 263 611 q 250 489 250 531 q 256 408 250 449 q 278 334 263 368 q 320 276 293 300 q 389 243 347 251 l 389 733 m 389 113 q 163 226 236 128 q 89 485 89 324 q 108 626 89 561 q 166 742 128 692 q 260 824 204 792 q 389 864 317 856 l 389 990 l 472 990 l 472 865 q 586 840 539 861 q 666 788 633 819 q 717 713 699 756 q 743 624 735 671 l 588 597 q 553 687 579 650 q 472 735 526 724 l 472 242 q 560 333 543 254 q 626 353 596 340 q 682 383 656 367 l 753 383 q 670 192 738 264 q 472 111 603 119 l 472 -14 l 389 -14 l 389 113 z "},"£":{"ha":822,"x_min":83,"x_max":775,"o":"m 114 118 q 176 224 158 169 q 194 344 194 278 q 192 379 194 363 q 188 419 190 396 l 83 419 l 83 544 l 172 544 q 163 607 167 575 q 158 679 158 639 q 182 815 158 757 q 247 910 206 872 q 342 967 288 949 q 458 986 396 986 q 594 966 540 986 q 680 913 647 946 q 728 838 713 879 q 753 753 744 796 l 617 729 q 597 784 608 760 q 569 824 586 808 q 526 847 551 839 q 465 856 501 856 q 344 808 382 856 q 307 685 307 761 q 308 637 307 658 q 313 600 310 615 l 321 544 l 624 544 l 624 419 l 338 419 q 340 396 339 407 q 342 375 342 385 q 330 251 342 313 q 278 138 318 189 l 775 138 l 756 0 l 113 0 q 113 59 113 29 q 114 118 114 89 z "},"¤":{"ha":822,"x_min":69,"x_max":751,"o":"m 410 251 q 547 313 506 251 q 589 469 589 374 q 547 628 589 567 q 410 689 506 689 q 325 672 360 689 q 269 624 290 654 q 238 555 247 594 q 229 469 229 515 q 271 312 229 372 q 410 251 313 251 m 151 265 q 96 468 96 353 q 110 578 96 526 q 153 674 125 629 l 69 758 l 167 851 l 251 758 q 324 792 285 779 q 413 804 364 804 q 496 792 456 804 q 571 758 536 781 l 656 851 l 751 758 l 669 674 q 710 579 696 629 q 724 472 724 529 q 709 360 724 413 q 668 268 694 308 l 751 181 l 656 89 l 571 181 q 496 148 536 160 q 411 136 456 136 q 324 147 363 136 q 250 179 285 158 l 167 89 l 69 181 l 151 265 z "},"¥":{"ha":822,"x_min":24,"x_max":799,"o":"m 336 317 l 336 411 l 326 431 l 93 431 l 93 546 l 256 546 l 24 960 l 193 960 l 415 536 l 640 960 l 799 960 l 568 546 l 735 546 l 735 431 l 499 431 l 490 411 l 490 317 l 735 317 l 735 203 l 490 203 l 490 0 l 336 0 l 336 203 l 93 203 l 93 317 l 336 317 z "},"¦":{"ha":350,"x_min":100,"x_max":250,"o":"m 250 318 l 250 -172 l 100 -172 l 100 318 l 250 318 m 250 1019 l 250 553 l 100 553 l 100 1019 l 250 1019 z "},"§":{"ha":754,"x_min":53,"x_max":697,"o":"m 360 310 q 382 303 371 307 q 406 300 393 300 q 435 300 419 297 q 522 328 483 301 q 560 414 560 354 q 535 488 560 456 q 440 539 510 519 l 375 556 q 345 560 360 558 q 315 561 331 563 q 235 528 267 558 q 203 443 203 497 q 212 390 203 411 q 240 355 221 369 q 289 330 260 340 q 360 310 318 319 m 208 97 q 265 -14 218 14 q 388 -42 311 -42 q 506 -15 474 -42 q 539 56 539 11 q 535 90 539 74 q 518 119 531 106 q 482 146 506 133 q 419 169 458 158 l 296 200 q 185 237 229 215 q 115 288 142 258 q 76 354 88 317 q 65 438 65 392 q 98 542 65 497 q 193 615 131 588 q 102 683 135 639 q 69 800 69 726 q 92 890 69 850 q 154 959 114 931 q 252 1002 194 988 q 381 1017 310 1017 q 519 999 464 1017 q 611 951 575 981 q 666 883 647 921 q 696 808 685 846 l 553 775 q 492 863 531 838 q 381 889 454 889 q 272 868 306 889 q 232 818 239 847 q 226 778 224 800 q 242 737 228 756 q 289 707 257 718 l 344 689 l 486 653 q 646 574 597 624 q 697 447 694 524 q 697 428 697 438 q 696 410 697 419 q 659 312 689 353 q 568 244 629 271 q 660 171 628 215 q 693 56 693 126 q 670 -44 693 -3 q 607 -114 647 -86 q 511 -155 567 -142 q 392 -168 456 -168 q 259 -154 318 -168 q 156 -109 200 -140 q 86 -27 113 -78 q 53 97 60 24 l 208 97 z "},"¨":{"ha":560,"x_min":72,"x_max":486,"o":"m 486 1006 l 486 850 l 335 850 l 335 1006 l 486 1006 m 224 1006 l 224 850 l 72 850 l 72 1006 l 224 1006 z "},"©":{"ha":1076,"x_min":63,"x_max":1013,"o":"m 782 421 q 712 267 772 322 q 540 211 651 211 q 424 233 474 211 q 343 292 375 254 q 296 381 311 329 q 281 494 281 433 q 299 609 281 557 q 351 699 317 661 q 434 758 385 736 q 547 779 483 779 q 706 728 651 779 q 775 594 761 678 l 653 574 q 619 650 642 619 q 543 681 596 681 q 476 664 503 681 q 435 621 450 647 q 413 562 419 594 q 407 496 407 529 q 414 425 407 458 q 436 367 421 392 q 478 326 451 342 q 542 311 504 311 q 657 421 644 311 l 782 421 m 539 90 q 685 118 617 90 q 803 198 753 146 q 882 325 853 250 q 911 496 911 400 q 883 663 911 588 q 804 790 854 738 q 686 872 754 843 q 539 900 618 900 q 380 869 450 900 q 262 783 310 838 q 189 655 214 729 q 164 496 164 581 q 192 326 164 401 q 269 198 219 250 q 388 118 319 146 q 539 90 457 90 m 539 0 q 342 36 431 0 q 192 138 254 72 q 96 295 129 204 q 63 496 63 386 q 100 700 63 608 q 203 856 138 792 q 354 956 268 921 q 539 992 440 992 q 733 956 646 992 q 883 854 821 919 q 978 697 944 789 q 1013 496 1013 606 q 974 287 1013 379 q 871 131 936 194 q 719 34 806 68 q 539 0 633 0 z "},"ª":{"ha":590,"x_min":47,"x_max":522,"o":"m 332 718 q 253 708 283 714 q 204 691 222 701 q 179 666 186 681 q 172 633 172 651 q 178 601 171 618 q 256 554 186 554 q 363 588 322 554 q 403 686 403 621 l 403 722 l 332 718 m 404 538 q 331 479 372 500 q 231 458 289 458 q 97 499 147 458 q 47 619 47 540 q 73 711 47 676 q 139 765 99 746 q 229 792 179 785 q 328 803 279 800 l 401 806 l 401 821 q 376 899 401 875 q 299 924 350 924 q 217 903 240 924 q 188 853 194 882 l 76 865 q 148 981 92 944 q 304 1017 204 1017 q 412 1000 369 1017 q 478 955 454 983 q 513 887 503 926 q 522 801 522 847 l 522 472 l 404 472 l 404 538 z "},"«":{"ha":725,"x_min":54,"x_max":690,"o":"m 533 668 l 690 668 l 524 360 l 690 43 l 531 43 l 351 358 l 533 668 m 239 668 l 396 668 l 228 360 l 396 43 l 236 43 l 54 358 l 239 668 z "},"¬":{"ha":822,"x_min":96,"x_max":708,"o":"m 708 606 l 708 233 l 567 233 l 567 469 l 96 469 l 96 606 l 708 606 z "},"­":{"ha":542,"x_min":65,"x_max":476,"o":"m 476 489 l 476 332 l 65 332 l 65 489 l 476 489 z "},"®":{"ha":675,"x_min":44,"x_max":631,"o":"m 336 475 q 494 536 433 475 q 556 714 556 597 q 496 890 556 826 q 336 953 436 953 q 177 890 236 953 q 118 714 118 826 q 177 537 118 599 q 336 475 236 475 m 336 411 q 214 433 268 411 q 122 495 160 456 q 65 590 85 535 q 44 714 44 646 q 67 841 44 785 q 130 936 90 897 q 223 996 169 975 q 336 1017 276 1017 q 456 995 401 1017 q 549 934 510 974 q 609 839 588 894 q 631 714 631 783 q 606 582 631 639 q 541 488 582 525 q 447 431 500 450 q 336 411 393 411 m 339 735 q 380 747 371 735 q 389 775 389 758 q 376 800 389 790 q 331 810 364 810 l 289 810 l 289 735 l 339 735 m 332 864 q 396 856 371 864 q 435 836 421 849 q 453 808 449 824 q 458 776 458 792 q 448 726 458 744 q 411 694 438 708 l 472 575 l 396 575 l 346 679 l 289 679 l 289 575 l 221 575 l 221 864 l 332 864 z "},"¯":{"ha":560,"x_min":88,"x_max":471,"o":"m 471 981 l 471 857 l 88 857 l 88 981 l 471 981 z "},"°":{"ha":472,"x_min":39,"x_max":433,"o":"m 238 692 q 305 719 279 692 q 331 792 331 746 q 305 863 331 835 q 238 890 279 890 q 167 863 193 890 q 142 792 142 835 q 167 718 142 744 q 238 692 193 692 m 39 792 q 53 869 39 833 q 94 930 68 904 q 158 971 121 956 q 238 986 194 986 q 315 972 279 986 q 376 931 350 957 q 418 869 403 904 q 433 792 433 833 q 417 709 433 746 q 374 647 401 672 q 312 608 347 622 q 238 594 276 594 q 155 610 192 594 q 92 653 118 626 q 53 716 67 681 q 39 792 39 751 z "},"±":{"ha":822,"x_min":93,"x_max":729,"o":"m 93 75 l 729 75 l 729 0 l 93 0 l 93 75 m 374 436 l 94 436 l 94 510 l 374 510 l 374 807 l 449 807 l 449 510 l 728 510 l 728 436 l 449 436 l 449 138 l 374 138 l 374 436 z "},"²":{"ha":572,"x_min":64,"x_max":497,"o":"m 93 503 q 142 543 114 521 q 224 610 171 565 l 281 658 q 342 726 321 694 q 364 803 364 758 q 343 858 364 838 q 286 879 322 879 q 219 858 243 879 q 183 783 194 836 l 64 799 q 86 865 72 832 q 126 924 100 899 q 193 967 153 950 q 292 983 233 983 q 439 935 388 983 q 490 810 490 886 q 451 685 490 742 q 338 568 411 629 l 308 546 l 263 508 l 497 508 l 482 403 l 81 403 l 81 492 l 93 503 z "},"³":{"ha":572,"x_min":74,"x_max":508,"o":"m 183 578 q 215 499 189 524 q 290 475 242 475 q 364 494 336 475 q 392 564 392 514 q 361 625 392 608 q 290 642 331 642 l 233 642 l 233 736 l 296 736 q 359 757 336 736 q 382 815 382 778 q 290 889 382 889 q 222 867 246 889 q 186 799 197 846 l 76 815 q 97 878 82 849 q 138 932 113 908 q 202 969 164 956 q 293 983 240 983 q 446 938 397 983 q 494 825 494 893 q 474 751 494 781 q 419 697 453 721 q 486 642 464 678 q 508 565 508 607 q 458 431 508 482 q 294 381 407 381 q 190 399 232 381 q 123 444 149 417 q 85 508 97 472 q 74 578 74 543 l 183 578 z "},"´":{"ha":560,"x_min":106,"x_max":453,"o":"m 453 1029 l 254 824 l 106 824 l 268 1029 l 453 1029 z "},"µ":{"ha":803,"x_min":90,"x_max":714,"o":"m 247 722 l 247 275 q 274 149 247 188 q 372 111 301 111 q 411 115 393 111 q 447 128 429 118 q 483 150 464 136 q 518 183 501 164 q 545 228 535 203 q 556 285 556 253 l 556 722 l 714 722 l 714 0 l 560 0 l 560 104 q 360 -18 479 -18 q 299 -11 328 -18 q 247 22 269 -4 l 247 -269 l 90 -269 l 90 722 l 247 722 z "},"¶":{"ha":878,"x_min":25,"x_max":783,"o":"m 338 388 q 190 419 250 393 q 94 486 131 446 q 41 578 57 526 q 25 689 25 631 q 43 801 25 747 q 107 898 61 856 q 231 966 153 940 q 428 992 308 992 l 783 992 l 783 -193 l 631 -193 l 631 861 l 489 861 l 489 -193 l 338 -193 l 338 388 z "},"·":{"ha":321,"x_min":76,"x_max":244,"o":"m 244 614 l 244 421 l 76 421 l 76 614 l 244 614 z "},"¸":{"ha":560,"x_min":140,"x_max":418,"o":"m 150 -204 q 189 -208 174 -207 q 219 -210 204 -210 l 240 -210 q 303 -167 303 -210 q 285 -135 303 -144 q 224 -125 267 -126 l 176 -125 l 226 8 l 319 8 l 292 -67 q 390 -106 361 -74 q 418 -179 418 -137 q 367 -269 418 -243 q 235 -294 317 -294 q 191 -293 214 -294 q 140 -287 168 -292 l 140 -203 l 150 -204 z "},"¹":{"ha":572,"x_min":76,"x_max":381,"o":"m 124 769 l 76 857 l 261 961 l 381 961 l 381 403 l 254 403 l 254 839 l 124 769 z "},"º":{"ha":590,"x_min":28,"x_max":561,"o":"m 294 557 q 400 606 368 557 q 432 735 432 654 q 400 863 432 815 q 294 911 368 911 q 189 862 221 911 q 157 735 157 813 q 189 604 157 651 q 294 557 221 557 m 293 451 q 98 526 168 451 q 28 735 28 600 q 47 852 28 800 q 101 941 65 904 q 185 997 136 978 q 294 1017 233 1017 q 490 942 418 1017 q 561 736 561 867 q 540 612 561 665 q 483 523 519 558 q 397 469 446 488 q 293 451 349 451 z "},"»":{"ha":729,"x_min":35,"x_max":675,"o":"m 35 668 l 194 668 l 375 354 l 192 43 l 35 43 l 201 353 l 35 668 m 333 668 l 494 668 l 675 354 l 492 43 l 333 43 l 503 353 l 333 668 z "},"¼":{"ha":1283,"x_min":32,"x_max":1214,"o":"m 296 0 l 781 960 l 935 960 l 450 0 l 296 0 m 79 769 l 32 857 l 217 961 l 336 961 l 336 403 l 210 403 l 210 839 l 79 769 m 1029 418 l 878 218 l 1029 218 l 1029 418 m 1032 560 l 1142 560 l 1142 218 l 1214 218 l 1200 122 l 1142 122 l 1142 1 l 1029 1 l 1029 122 l 757 122 l 757 199 l 1032 560 z "},"½":{"ha":1283,"x_min":32,"x_max":1199,"o":"m 258 0 l 743 960 l 897 960 l 413 0 l 258 0 m 79 769 l 32 857 l 217 961 l 336 961 l 336 403 l 210 403 l 210 839 l 79 769 m 794 101 q 844 142 815 119 q 925 208 872 164 l 982 257 q 1044 325 1022 293 q 1065 401 1065 357 q 1044 457 1065 436 q 988 478 1024 478 q 920 456 944 478 q 885 382 896 435 l 765 397 q 788 464 774 431 q 828 523 801 497 q 894 565 854 549 q 993 582 935 582 q 1140 533 1089 582 q 1192 408 1192 485 q 1152 284 1192 340 q 1039 167 1113 228 l 1010 144 l 964 107 l 1199 107 l 1183 1 l 782 1 l 782 90 l 794 101 z "},"¾":{"ha":1283,"x_min":74,"x_max":1214,"o":"m 361 0 l 846 960 l 1000 960 l 515 0 l 361 0 m 1029 418 l 878 218 l 1029 218 l 1029 418 m 1032 560 l 1142 560 l 1142 218 l 1214 218 l 1200 122 l 1142 122 l 1142 1 l 1029 1 l 1029 122 l 757 122 l 757 199 l 1032 560 m 183 578 q 215 499 189 524 q 290 475 242 475 q 364 494 336 475 q 392 564 392 514 q 361 625 392 608 q 290 642 331 642 l 233 642 l 233 736 l 296 736 q 359 757 336 736 q 382 815 382 778 q 290 889 382 889 q 222 867 246 889 q 186 799 197 846 l 76 815 q 97 878 82 849 q 138 932 113 908 q 202 969 164 956 q 293 983 240 983 q 446 938 397 983 q 494 825 494 893 q 474 751 494 781 q 419 697 453 721 q 486 642 464 678 q 508 565 508 607 q 458 431 508 482 q 294 381 407 381 q 190 399 232 381 q 123 444 149 417 q 85 508 97 472 q 74 578 74 543 l 183 578 z "},"¿":{"ha":690,"x_min":28,"x_max":663,"o":"m 426 722 l 426 531 l 264 531 l 264 722 l 426 722 m 661 -21 q 625 -123 649 -75 q 563 -207 601 -171 q 468 -264 525 -243 q 332 -285 411 -285 q 107 -215 186 -285 q 28 -31 28 -146 q 36 45 28 13 q 60 104 44 78 q 94 153 75 131 q 138 199 114 175 l 186 246 q 243 316 219 279 q 267 401 267 353 l 267 422 l 422 422 l 422 396 q 399 297 422 338 q 343 219 376 256 q 284 160 311 186 q 237 108 257 133 q 204 55 217 83 q 192 -12 192 26 q 228 -115 190 -78 q 333 -151 265 -151 q 456 -115 414 -151 q 518 6 499 -78 l 663 -14 l 661 -21 z "},"À":{"ha":953,"x_min":15,"x_max":938,"o":"m 393 992 l 560 992 l 938 0 l 758 0 l 665 253 l 281 253 l 189 0 l 15 0 l 393 992 m 619 393 l 472 801 l 326 393 l 619 393 m 593 1074 l 442 1074 l 235 1267 l 424 1267 l 593 1074 z "},"Á":{"ha":953,"x_min":15,"x_max":938,"o":"m 393 992 l 560 992 l 938 0 l 758 0 l 665 253 l 281 253 l 189 0 l 15 0 l 393 992 m 619 393 l 472 801 l 326 393 l 619 393 m 717 1267 l 510 1074 l 358 1074 l 529 1267 l 717 1267 z "},"Â":{"ha":953,"x_min":15,"x_max":938,"o":"m 393 992 l 560 992 l 938 0 l 758 0 l 665 253 l 281 253 l 189 0 l 15 0 l 393 992 m 619 393 l 472 801 l 326 393 l 619 393 m 554 1267 l 718 1074 l 578 1074 l 475 1178 l 372 1074 l 232 1074 l 396 1267 l 554 1267 z "},"Ã":{"ha":953,"x_min":15,"x_max":938,"o":"m 393 992 l 560 992 l 938 0 l 758 0 l 665 253 l 281 253 l 189 0 l 15 0 l 393 992 m 619 393 l 472 801 l 326 393 l 619 393 m 214 1078 q 256 1215 214 1171 q 374 1258 299 1258 q 426 1248 401 1258 q 472 1224 450 1238 q 517 1201 494 1211 q 563 1190 539 1190 q 622 1254 622 1190 l 736 1254 q 694 1117 736 1160 q 578 1075 651 1075 q 526 1083 550 1075 q 481 1104 503 1092 l 444 1125 q 417 1137 429 1132 q 390 1142 406 1142 q 342 1126 357 1142 q 328 1078 328 1110 l 214 1078 z "},"Ä":{"ha":953,"x_min":15,"x_max":938,"o":"m 393 992 l 560 992 l 938 0 l 758 0 l 665 253 l 281 253 l 189 0 l 15 0 l 393 992 m 619 393 l 472 801 l 326 393 l 619 393 m 688 1253 l 688 1092 l 532 1092 l 532 1253 l 688 1253 m 418 1253 l 418 1092 l 263 1092 l 263 1253 l 418 1253 z "},"Å":{"ha":953,"x_min":15,"x_max":938,"o":"m 475 1024 q 540 1093 540 1024 q 522 1147 540 1129 q 475 1164 504 1164 q 410 1093 410 1164 q 427 1040 410 1056 q 475 1024 444 1024 m 472 801 l 326 393 l 619 393 l 472 801 m 383 964 q 350 993 364 975 q 331 1038 336 1011 q 319 1093 319 1058 q 364 1208 319 1168 q 475 1247 408 1247 q 533 1238 504 1247 q 583 1208 561 1228 q 617 1160 604 1189 q 631 1093 631 1132 q 613 1017 631 1049 q 568 967 596 985 l 938 0 l 758 0 l 665 253 l 281 253 l 189 0 l 15 0 l 383 964 z "},"Æ":{"ha":1443,"x_min":-1,"x_max":1404,"o":"m 589 992 l 1378 992 l 1378 847 l 917 847 l 917 583 l 1350 583 l 1350 438 l 917 438 l 917 144 l 1404 144 l 1385 0 l 754 0 l 754 313 l 365 313 l 188 0 l -1 0 l 589 992 m 754 454 l 754 847 l 672 847 l 447 454 l 754 454 z "},"Ç":{"ha":989,"x_min":72,"x_max":936,"o":"m 379 -210 q 433 -217 411 -215 q 474 -218 454 -218 q 528 -207 513 -218 q 543 -176 543 -196 q 525 -146 543 -157 q 456 -135 507 -135 l 415 -135 l 457 -21 q 293 30 365 -11 q 172 137 221 71 q 98 293 124 203 q 72 494 72 383 q 105 714 72 617 q 197 878 138 811 q 340 981 257 946 q 524 1017 424 1017 q 685 993 617 1017 q 801 926 753 969 q 877 821 849 882 q 919 685 906 760 l 754 661 q 726 750 743 711 q 683 816 710 789 q 617 858 656 843 q 524 872 578 872 q 406 846 457 872 q 319 770 354 819 q 265 651 283 721 q 247 496 247 582 q 266 339 247 408 q 321 220 285 269 q 408 145 357 171 q 524 119 458 119 q 623 135 582 119 q 692 178 664 150 q 735 245 719 206 q 758 335 751 285 l 936 335 q 900 197 928 261 q 825 85 872 133 q 710 9 778 38 q 553 -24 642 -19 l 535 -74 q 601 -89 575 -78 q 642 -115 628 -100 q 663 -149 657 -131 q 668 -189 668 -168 q 616 -282 668 -254 q 475 -310 564 -310 q 433 -308 456 -310 q 379 -303 410 -307 l 379 -210 z "},"È":{"ha":832,"x_min":106,"x_max":792,"o":"m 106 992 l 765 992 l 765 847 l 274 847 l 274 583 l 738 583 l 738 438 l 274 438 l 274 144 l 792 144 l 772 0 l 106 0 l 106 992 m 574 1074 l 422 1074 l 215 1267 l 404 1267 l 574 1074 z "},"É":{"ha":832,"x_min":106,"x_max":792,"o":"m 106 992 l 765 992 l 765 847 l 274 847 l 274 583 l 738 583 l 738 438 l 274 438 l 274 144 l 792 144 l 772 0 l 106 0 l 106 992 m 669 1267 l 463 1074 l 311 1074 l 482 1267 l 669 1267 z "},"Ê":{"ha":832,"x_min":106,"x_max":792,"o":"m 106 992 l 765 992 l 765 847 l 274 847 l 274 583 l 738 583 l 738 438 l 274 438 l 274 144 l 792 144 l 772 0 l 106 0 l 106 992 m 517 1267 l 681 1074 l 540 1074 l 438 1178 l 335 1074 l 194 1074 l 358 1267 l 517 1267 z "},"Ë":{"ha":832,"x_min":106,"x_max":792,"o":"m 106 992 l 765 992 l 765 847 l 274 847 l 274 583 l 738 583 l 738 438 l 274 438 l 274 144 l 792 144 l 772 0 l 106 0 l 106 992 m 650 1253 l 650 1092 l 494 1092 l 494 1253 l 650 1253 m 381 1253 l 381 1092 l 225 1092 l 225 1253 l 381 1253 z "},"Ì":{"ha":378,"x_min":-49,"x_max":310,"o":"m 106 992 l 274 992 l 274 0 l 106 0 l 106 992 m 310 1074 l 158 1074 l -49 1267 l 140 1267 l 310 1074 z "},"Í":{"ha":378,"x_min":74,"x_max":432,"o":"m 106 992 l 274 992 l 274 0 l 106 0 l 106 992 m 432 1267 l 225 1074 l 74 1074 l 244 1267 l 432 1267 z "},"Î":{"ha":378,"x_min":-53,"x_max":433,"o":"m 106 992 l 274 992 l 274 0 l 106 0 l 106 992 m 269 1267 l 433 1074 l 293 1074 l 190 1178 l 88 1074 l -53 1074 l 111 1267 l 269 1267 z "},"Ï":{"ha":378,"x_min":-22,"x_max":403,"o":"m 106 992 l 274 992 l 274 0 l 106 0 l 106 992 m 403 1253 l 403 1092 l 247 1092 l 247 1253 l 403 1253 m 133 1253 l 133 1092 l -22 1092 l -22 1253 l 133 1253 z "},"Ð":{"ha":1029,"x_min":14,"x_max":957,"o":"m 457 143 q 706 238 628 143 q 783 500 783 333 q 766 647 783 582 q 713 756 749 711 q 620 825 676 801 q 486 849 564 849 l 294 849 l 294 582 l 526 582 l 526 442 l 294 442 l 294 143 l 457 143 m 14 442 l 14 582 l 126 582 l 126 992 l 486 992 q 832 868 707 992 q 957 501 957 744 q 920 279 957 374 q 817 123 883 185 q 658 31 751 61 q 453 0 565 0 l 126 0 l 126 442 l 14 442 z "},"Ñ":{"ha":986,"x_min":106,"x_max":881,"o":"m 106 992 l 261 992 l 717 275 l 717 992 l 881 992 l 881 0 l 725 0 l 268 714 l 268 0 l 106 0 l 106 992 m 232 1078 q 274 1215 232 1171 q 392 1258 317 1258 q 444 1248 419 1258 q 490 1224 468 1238 q 535 1201 513 1211 q 581 1190 557 1190 q 640 1254 640 1190 l 754 1254 q 712 1117 754 1160 q 596 1075 669 1075 q 544 1083 568 1075 q 499 1104 521 1092 l 463 1125 q 435 1137 447 1132 q 408 1142 424 1142 q 360 1126 375 1142 q 346 1078 346 1110 l 232 1078 z "},"Ò":{"ha":1072,"x_min":72,"x_max":1000,"o":"m 538 -25 q 345 10 431 -25 q 199 113 260 46 q 105 276 138 179 q 72 494 72 372 q 106 714 72 617 q 200 878 139 811 q 347 981 261 946 q 538 1017 433 1017 q 729 981 643 1017 q 875 879 815 946 q 967 716 935 813 q 1000 497 1000 619 q 968 277 1000 374 q 876 113 936 181 q 731 10 817 46 q 538 -25 646 -25 m 536 119 q 753 220 679 119 q 826 496 826 321 q 808 653 826 583 q 753 771 789 722 q 663 846 717 819 q 536 872 608 872 q 410 846 464 872 q 319 771 356 819 q 264 653 282 722 q 246 496 246 583 q 319 220 246 321 q 536 119 392 119 m 675 1074 l 524 1074 l 317 1267 l 506 1267 l 675 1074 z "},"Ó":{"ha":1072,"x_min":72,"x_max":1000,"o":"m 538 -25 q 345 10 431 -25 q 199 113 260 46 q 105 276 138 179 q 72 494 72 372 q 106 714 72 617 q 200 878 139 811 q 347 981 261 946 q 538 1017 433 1017 q 729 981 643 1017 q 875 879 815 946 q 967 716 935 813 q 1000 497 1000 619 q 968 277 1000 374 q 876 113 936 181 q 731 10 817 46 q 538 -25 646 -25 m 536 119 q 753 220 679 119 q 826 496 826 321 q 808 653 826 583 q 753 771 789 722 q 663 846 717 819 q 536 872 608 872 q 410 846 464 872 q 319 771 356 819 q 264 653 282 722 q 246 496 246 583 q 319 220 246 321 q 536 119 392 119 m 765 1267 l 558 1074 l 407 1074 l 578 1267 l 765 1267 z "},"Ô":{"ha":1072,"x_min":72,"x_max":1000,"o":"m 538 -25 q 345 10 431 -25 q 199 113 260 46 q 105 276 138 179 q 72 494 72 372 q 106 714 72 617 q 200 878 139 811 q 347 981 261 946 q 538 1017 433 1017 q 729 981 643 1017 q 875 879 815 946 q 967 716 935 813 q 1000 497 1000 619 q 968 277 1000 374 q 876 113 936 181 q 731 10 817 46 q 538 -25 646 -25 m 536 119 q 753 220 679 119 q 826 496 826 321 q 808 653 826 583 q 753 771 789 722 q 663 846 717 819 q 536 872 608 872 q 410 846 464 872 q 319 771 356 819 q 264 653 282 722 q 246 496 246 583 q 319 220 246 321 q 536 119 392 119 m 615 1267 l 779 1074 l 639 1074 l 536 1178 l 433 1074 l 293 1074 l 457 1267 l 615 1267 z "},"Õ":{"ha":1072,"x_min":72,"x_max":1000,"o":"m 538 -25 q 345 10 431 -25 q 199 113 260 46 q 105 276 138 179 q 72 494 72 372 q 106 714 72 617 q 200 878 139 811 q 347 981 261 946 q 538 1017 433 1017 q 729 981 643 1017 q 875 879 815 946 q 967 716 935 813 q 1000 497 1000 619 q 968 277 1000 374 q 876 113 936 181 q 731 10 817 46 q 538 -25 646 -25 m 536 119 q 753 220 679 119 q 826 496 826 321 q 808 653 826 583 q 753 771 789 722 q 663 846 717 819 q 536 872 608 872 q 410 846 464 872 q 319 771 356 819 q 264 653 282 722 q 246 496 246 583 q 319 220 246 321 q 536 119 392 119 m 275 1078 q 317 1215 275 1171 q 435 1258 360 1258 q 487 1248 463 1258 q 533 1224 511 1238 q 578 1201 556 1211 q 624 1190 600 1190 q 683 1254 683 1190 l 797 1254 q 755 1117 797 1160 q 639 1075 713 1075 q 588 1083 611 1075 q 542 1104 564 1092 l 506 1125 q 478 1137 490 1132 q 451 1142 467 1142 q 403 1126 418 1142 q 389 1078 389 1110 l 275 1078 z "},"Ö":{"ha":1072,"x_min":72,"x_max":1000,"o":"m 538 -25 q 345 10 431 -25 q 199 113 260 46 q 105 276 138 179 q 72 494 72 372 q 106 714 72 617 q 200 878 139 811 q 347 981 261 946 q 538 1017 433 1017 q 729 981 643 1017 q 875 879 815 946 q 967 716 935 813 q 1000 497 1000 619 q 968 277 1000 374 q 876 113 936 181 q 731 10 817 46 q 538 -25 646 -25 m 536 119 q 753 220 679 119 q 826 496 826 321 q 808 653 826 583 q 753 771 789 722 q 663 846 717 819 q 536 872 608 872 q 410 846 464 872 q 319 771 356 819 q 264 653 282 722 q 246 496 246 583 q 319 220 246 321 q 536 119 392 119 m 749 1253 l 749 1092 l 593 1092 l 593 1253 l 749 1253 m 479 1253 l 479 1092 l 324 1092 l 324 1253 l 479 1253 z "},"×":{"ha":822,"x_min":106,"x_max":717,"o":"m 106 681 l 201 778 l 411 568 l 621 778 l 717 681 l 508 471 l 713 265 l 615 168 l 411 374 l 206 168 l 110 265 l 314 471 l 106 681 z "},"Ø":{"ha":1072,"x_min":72,"x_max":1000,"o":"m 689 829 q 618 861 656 850 q 536 872 581 872 q 408 846 463 872 q 317 770 353 819 q 263 651 281 721 q 246 496 246 582 q 260 356 246 418 q 303 246 274 293 l 689 829 m 371 168 q 536 119 436 119 q 753 219 681 119 q 826 496 826 318 q 761 760 826 661 l 371 168 m 207 101 q 72 494 72 236 q 106 715 72 618 q 200 879 139 813 q 347 981 261 946 q 538 1017 433 1017 q 663 1001 604 1017 q 774 958 722 986 l 846 1067 l 928 1013 l 854 900 q 963 730 925 832 q 1000 497 1000 628 q 967 275 1000 372 q 874 111 935 178 q 728 10 814 44 q 538 -25 643 -25 q 401 -8 463 -25 q 286 40 339 8 l 210 -75 l 126 -21 l 207 101 z "},"Ù":{"ha":956,"x_min":90,"x_max":865,"o":"m 257 992 l 257 397 q 308 188 257 257 q 479 119 358 119 q 648 188 599 119 q 697 397 697 257 l 697 992 l 865 992 l 865 397 q 838 202 865 282 q 758 72 810 122 q 636 -2 707 21 q 478 -25 565 -25 q 189 77 288 -25 q 90 401 90 179 l 90 992 l 257 992 m 604 1074 l 453 1074 l 246 1267 l 435 1267 l 604 1074 z "},"Ú":{"ha":956,"x_min":90,"x_max":865,"o":"m 257 992 l 257 397 q 308 188 257 257 q 479 119 358 119 q 648 188 599 119 q 697 397 697 257 l 697 992 l 865 992 l 865 397 q 838 202 865 282 q 758 72 810 122 q 636 -2 707 21 q 478 -25 565 -25 q 189 77 288 -25 q 90 401 90 179 l 90 992 l 257 992 m 718 1267 l 511 1074 l 360 1074 l 531 1267 l 718 1267 z "},"Û":{"ha":956,"x_min":90,"x_max":865,"o":"m 257 992 l 257 397 q 308 188 257 257 q 479 119 358 119 q 648 188 599 119 q 697 397 697 257 l 697 992 l 865 992 l 865 397 q 838 202 865 282 q 758 72 810 122 q 636 -2 707 21 q 478 -25 565 -25 q 189 77 288 -25 q 90 401 90 179 l 90 992 l 257 992 m 556 1267 l 719 1074 l 579 1074 l 476 1178 l 374 1074 l 233 1074 l 397 1267 l 556 1267 z "},"Ü":{"ha":956,"x_min":90,"x_max":865,"o":"m 257 992 l 257 397 q 308 188 257 257 q 479 119 358 119 q 648 188 599 119 q 697 397 697 257 l 697 992 l 865 992 l 865 397 q 838 202 865 282 q 758 72 810 122 q 636 -2 707 21 q 478 -25 565 -25 q 189 77 288 -25 q 90 401 90 179 l 90 992 l 257 992 m 689 1253 l 689 1092 l 533 1092 l 533 1253 l 689 1253 m 419 1253 l 419 1092 l 264 1092 l 264 1253 l 419 1253 z "},"Ý":{"ha":882,"x_min":17,"x_max":865,"o":"m 361 413 l 17 992 l 204 992 l 443 561 l 688 992 l 865 992 l 528 413 l 528 0 l 361 0 l 361 413 m 685 1267 l 478 1074 l 326 1074 l 497 1267 l 685 1267 z "},"Þ":{"ha":879,"x_min":106,"x_max":824,"o":"m 447 332 q 552 344 511 332 q 617 380 593 357 q 649 435 640 403 q 658 507 658 467 q 649 578 658 547 q 615 631 639 610 q 550 663 592 651 q 446 674 508 674 l 271 674 l 271 332 l 447 332 m 271 992 l 271 814 l 449 814 q 633 789 560 814 q 748 722 706 764 q 807 626 790 681 q 824 511 824 571 q 806 386 824 444 q 744 285 788 328 q 630 217 701 242 q 451 192 558 192 l 271 192 l 271 0 l 106 0 l 106 992 l 271 992 z "},"ß":{"ha":819,"x_min":90,"x_max":771,"o":"m 90 707 q 113 833 90 778 q 175 926 135 888 q 272 983 215 964 q 394 1003 328 1003 q 615 940 536 1003 q 694 758 694 876 q 665 634 694 685 q 574 549 636 583 q 718 458 665 525 q 771 279 771 392 q 700 70 771 147 q 490 -12 629 -7 q 447 -12 469 -14 q 382 -7 415 -12 q 322 8 349 -1 l 346 128 q 388 116 361 121 q 436 111 414 111 q 576 155 538 111 q 615 289 615 199 q 558 424 615 385 q 399 463 501 463 l 344 463 l 344 586 l 379 586 q 499 620 458 586 q 540 743 540 654 q 508 842 540 803 q 399 882 475 882 q 275 826 308 882 q 242 664 242 769 l 242 0 l 90 0 l 90 707 z "},"à":{"ha":763,"x_min":44,"x_max":679,"o":"m 424 338 q 309 322 353 333 q 242 294 265 311 q 210 253 218 276 q 203 204 203 231 q 233 131 203 157 q 321 104 263 104 q 475 157 425 104 q 525 300 525 210 l 525 342 l 424 338 m 528 94 q 429 14 488 46 q 288 -18 371 -18 q 192 -5 236 -18 q 115 35 147 8 q 63 102 82 61 q 44 199 44 143 q 78 320 44 274 q 165 393 111 367 q 285 430 218 419 q 418 443 351 440 l 525 449 l 525 479 q 485 592 525 561 q 382 624 446 624 q 273 599 308 624 q 226 526 238 574 l 82 542 q 178 696 101 647 q 388 744 254 744 q 530 722 474 744 q 619 661 586 700 q 666 569 653 622 q 679 451 679 515 l 679 0 l 528 0 l 528 94 m 357 1029 l 519 824 l 371 824 l 172 1029 l 357 1029 z "},"á":{"ha":763,"x_min":44,"x_max":679,"o":"m 424 338 q 309 322 353 333 q 242 294 265 311 q 210 253 218 276 q 203 204 203 231 q 233 131 203 157 q 321 104 263 104 q 475 157 425 104 q 525 300 525 210 l 525 342 l 424 338 m 528 94 q 429 14 488 46 q 288 -18 371 -18 q 192 -5 236 -18 q 115 35 147 8 q 63 102 82 61 q 44 199 44 143 q 78 320 44 274 q 165 393 111 367 q 285 430 218 419 q 418 443 351 440 l 525 449 l 525 479 q 485 592 525 561 q 382 624 446 624 q 273 599 308 624 q 226 526 238 574 l 82 542 q 178 696 101 647 q 388 744 254 744 q 530 722 474 744 q 619 661 586 700 q 666 569 653 622 q 679 451 679 515 l 679 0 l 528 0 l 528 94 m 614 1029 l 415 824 l 267 824 l 429 1029 l 614 1029 z "},"â":{"ha":763,"x_min":44,"x_max":679,"o":"m 424 338 q 309 322 353 333 q 242 294 265 311 q 210 253 218 276 q 203 204 203 231 q 233 131 203 157 q 321 104 263 104 q 475 157 425 104 q 525 300 525 210 l 525 342 l 424 338 m 528 94 q 429 14 488 46 q 288 -18 371 -18 q 192 -5 236 -18 q 115 35 147 8 q 63 102 82 61 q 44 199 44 143 q 78 320 44 274 q 165 393 111 367 q 285 430 218 419 q 418 443 351 440 l 525 449 l 525 479 q 485 592 525 561 q 382 624 446 624 q 273 599 308 624 q 226 526 238 574 l 82 542 q 178 696 101 647 q 388 744 254 744 q 530 722 474 744 q 619 661 586 700 q 666 569 653 622 q 679 451 679 515 l 679 0 l 528 0 l 528 94 m 458 1029 l 621 824 l 482 824 l 379 942 l 276 824 l 136 824 l 300 1029 l 458 1029 z "},"ã":{"ha":763,"x_min":44,"x_max":679,"o":"m 424 338 q 309 322 353 333 q 242 294 265 311 q 210 253 218 276 q 203 204 203 231 q 233 131 203 157 q 321 104 263 104 q 475 157 425 104 q 525 300 525 210 l 525 342 l 424 338 m 528 94 q 429 14 488 46 q 288 -18 371 -18 q 192 -5 236 -18 q 115 35 147 8 q 63 102 82 61 q 44 199 44 143 q 78 320 44 274 q 165 393 111 367 q 285 430 218 419 q 418 443 351 440 l 525 449 l 525 479 q 485 592 525 561 q 382 624 446 624 q 273 599 308 624 q 226 526 238 574 l 82 542 q 178 696 101 647 q 388 744 254 744 q 530 722 474 744 q 619 661 586 700 q 666 569 653 622 q 679 451 679 515 l 679 0 l 528 0 l 528 94 m 125 838 q 166 974 125 929 q 279 1018 207 1018 q 328 1008 304 1018 q 374 985 351 997 q 419 962 397 972 q 465 951 442 951 q 524 1014 524 951 l 633 1014 q 592 877 633 919 q 481 835 551 835 q 431 843 454 835 q 386 863 407 851 l 346 886 q 320 897 332 893 q 294 901 308 901 q 235 838 235 901 l 125 838 z "},"ä":{"ha":763,"x_min":44,"x_max":679,"o":"m 424 338 q 309 322 353 333 q 242 294 265 311 q 210 253 218 276 q 203 204 203 231 q 233 131 203 157 q 321 104 263 104 q 475 157 425 104 q 525 300 525 210 l 525 342 l 424 338 m 528 94 q 429 14 488 46 q 288 -18 371 -18 q 192 -5 236 -18 q 115 35 147 8 q 63 102 82 61 q 44 199 44 143 q 78 320 44 274 q 165 393 111 367 q 285 430 218 419 q 418 443 351 440 l 525 449 l 525 479 q 485 592 525 561 q 382 624 446 624 q 273 599 308 624 q 226 526 238 574 l 82 542 q 178 696 101 647 q 388 744 254 744 q 530 722 474 744 q 619 661 586 700 q 666 569 653 622 q 679 451 679 515 l 679 0 l 528 0 l 528 94 m 586 1006 l 586 850 l 435 850 l 435 1006 l 586 1006 m 324 1006 l 324 850 l 172 850 l 172 1006 l 324 1006 z "},"å":{"ha":763,"x_min":44,"x_max":679,"o":"m 424 338 q 309 322 353 333 q 242 294 265 311 q 210 253 218 276 q 203 204 203 231 q 233 131 203 157 q 321 104 263 104 q 475 157 425 104 q 525 300 525 210 l 525 342 l 424 338 m 528 94 q 429 14 488 46 q 288 -18 371 -18 q 192 -5 236 -18 q 115 35 147 8 q 63 102 82 61 q 44 199 44 143 q 78 320 44 274 q 165 393 111 367 q 285 430 218 419 q 418 443 351 440 l 525 449 l 525 479 q 485 592 525 561 q 382 624 446 624 q 273 599 308 624 q 226 526 238 574 l 82 542 q 178 696 101 647 q 388 744 254 744 q 530 722 474 744 q 619 661 586 700 q 666 569 653 622 q 679 451 679 515 l 679 0 l 528 0 l 528 94 m 379 897 q 424 914 407 897 q 442 965 442 931 q 425 1017 442 1000 q 379 1033 408 1033 q 315 965 315 1033 q 379 897 315 897 m 228 965 q 240 1029 228 1001 q 272 1076 251 1057 q 321 1104 293 1094 q 379 1114 349 1114 q 486 1074 442 1114 q 531 965 531 1035 q 517 897 531 925 q 483 852 504 869 q 434 826 461 835 q 379 818 407 818 q 272 854 315 818 q 228 965 228 890 z "},"æ":{"ha":1243,"x_min":44,"x_max":1179,"o":"m 1025 432 q 984 572 1025 521 q 856 624 943 624 q 724 571 768 624 q 672 432 679 518 l 1025 432 m 415 338 q 304 322 346 333 q 240 294 263 311 q 210 255 218 278 q 203 204 203 232 q 233 130 203 156 q 318 104 263 104 q 465 155 414 104 q 517 296 517 206 l 517 342 l 415 338 m 82 542 q 178 696 101 647 q 383 744 254 744 q 525 717 469 744 q 617 622 581 689 q 726 717 665 689 q 858 744 788 744 q 1001 719 940 744 q 1101 647 1061 693 q 1160 535 1140 600 q 1179 392 1179 471 l 1179 322 l 669 322 q 719 163 672 225 q 858 101 765 101 q 967 131 929 101 q 1017 214 1004 160 l 1169 214 q 1073 38 1149 97 q 858 -22 997 -22 q 694 15 767 -22 q 582 126 621 51 q 538 72 563 99 q 479 26 513 46 q 402 -6 446 6 q 304 -18 358 -18 q 116 34 188 -18 q 44 199 44 86 q 78 321 44 274 q 164 394 111 368 q 281 430 217 419 q 410 443 346 440 l 517 449 l 517 479 q 478 593 517 563 q 378 624 440 624 q 240 551 267 624 q 106 539 171 547 l 82 542 z "},"ç":{"ha":783,"x_min":65,"x_max":726,"o":"m 269 -204 q 299 -207 285 -206 q 325 -210 313 -208 q 382 -193 371 -210 q 422 -161 425 -190 q 400 -133 419 -142 q 336 -125 381 -125 l 296 -125 l 336 -17 q 131 104 196 6 q 65 358 65 203 q 89 516 65 444 q 158 638 113 588 q 268 717 203 689 q 417 744 333 744 q 543 725 490 744 q 631 672 596 706 q 687 594 667 639 q 715 499 707 550 l 558 475 q 516 576 547 536 q 411 617 485 617 q 323 594 358 617 q 267 536 288 572 q 238 455 246 500 q 229 363 229 410 q 238 261 229 308 q 269 180 247 214 q 325 126 290 146 q 410 106 360 106 q 519 144 482 106 q 567 253 556 182 l 726 253 q 639 56 711 126 q 428 -21 567 -15 l 413 -67 q 506 -101 481 -74 q 538 -167 532 -129 l 538 -187 q 480 -272 533 -250 q 340 -294 426 -294 q 303 -292 322 -294 q 261 -287 285 -290 l 261 -203 l 269 -204 z "},"è":{"ha":806,"x_min":65,"x_max":742,"o":"m 732 214 q 636 40 713 101 q 417 -22 560 -22 q 155 77 244 -22 q 65 357 65 176 q 91 522 65 450 q 163 644 117 594 q 274 719 210 693 q 417 744 339 744 q 561 719 500 744 q 663 647 622 693 q 722 535 703 600 q 742 392 742 471 l 742 322 l 224 322 q 274 163 226 224 q 417 101 321 101 q 529 131 492 101 q 579 214 567 160 l 732 214 m 588 432 q 546 572 588 521 q 413 624 504 624 q 279 572 325 624 q 226 432 233 519 l 588 432 m 379 1029 l 542 824 l 393 824 l 194 1029 l 379 1029 z "},"é":{"ha":806,"x_min":65,"x_max":742,"o":"m 732 214 q 636 40 713 101 q 417 -22 560 -22 q 155 77 244 -22 q 65 357 65 176 q 91 522 65 450 q 163 644 117 594 q 274 719 210 693 q 417 744 339 744 q 561 719 500 744 q 663 647 622 693 q 722 535 703 600 q 742 392 742 471 l 742 322 l 224 322 q 274 163 226 224 q 417 101 321 101 q 529 131 492 101 q 579 214 567 160 l 732 214 m 588 432 q 546 572 588 521 q 413 624 504 624 q 279 572 325 624 q 226 432 233 519 l 588 432 m 640 1029 l 442 824 l 293 824 l 456 1029 l 640 1029 z "},"ê":{"ha":806,"x_min":65,"x_max":742,"o":"m 732 214 q 636 40 713 101 q 417 -22 560 -22 q 155 77 244 -22 q 65 357 65 176 q 91 522 65 450 q 163 644 117 594 q 274 719 210 693 q 417 744 339 744 q 561 719 500 744 q 663 647 622 693 q 722 535 703 600 q 742 392 742 471 l 742 322 l 224 322 q 274 163 226 224 q 417 101 321 101 q 529 131 492 101 q 579 214 567 160 l 732 214 m 588 432 q 546 572 588 521 q 413 624 504 624 q 279 572 325 624 q 226 432 233 519 l 588 432 m 492 1029 l 654 824 l 515 824 l 413 942 l 310 824 l 169 824 l 333 1029 l 492 1029 z "},"ë":{"ha":806,"x_min":65,"x_max":742,"o":"m 732 214 q 636 40 713 101 q 417 -22 560 -22 q 155 77 244 -22 q 65 357 65 176 q 91 522 65 450 q 163 644 117 594 q 274 719 210 693 q 417 744 339 744 q 561 719 500 744 q 663 647 622 693 q 722 535 703 600 q 742 392 742 471 l 742 322 l 224 322 q 274 163 226 224 q 417 101 321 101 q 529 131 492 101 q 579 214 567 160 l 732 214 m 588 432 q 546 572 588 521 q 413 624 504 624 q 279 572 325 624 q 226 432 233 519 l 588 432 m 619 1006 l 619 850 l 468 850 l 468 1006 l 619 1006 m 357 1006 l 357 850 l 206 850 l 206 1006 l 357 1006 z "},"ì":{"ha":342,"x_min":-75,"x_max":272,"o":"m 250 722 l 250 0 l 92 0 l 92 722 l 250 722 m 110 1029 l 272 824 l 124 824 l -75 1029 l 110 1029 z "},"í":{"ha":342,"x_min":75,"x_max":422,"o":"m 250 722 l 250 0 l 92 0 l 92 722 l 250 722 m 422 1029 l 224 824 l 75 824 l 238 1029 l 422 1029 z "},"î":{"ha":342,"x_min":-72,"x_max":413,"o":"m 250 722 l 250 0 l 92 0 l 92 722 l 250 722 m 250 1029 l 413 824 l 274 824 l 171 942 l 68 824 l -72 824 l 92 1029 l 250 1029 z "},"ï":{"ha":342,"x_min":-36,"x_max":378,"o":"m 250 722 l 250 0 l 92 0 l 92 722 l 250 722 m 378 1006 l 378 850 l 226 850 l 226 1006 l 378 1006 m 115 1006 l 115 850 l -36 850 l -36 1006 l 115 1006 z "},"ð":{"ha":846,"x_min":65,"x_max":779,"o":"m 615 343 q 599 447 615 406 q 553 512 582 488 q 489 546 525 536 q 414 556 453 556 q 278 493 328 556 q 229 331 229 431 q 278 167 229 229 q 422 106 328 106 q 565 168 515 106 q 615 335 615 231 l 615 343 m 324 875 q 256 890 292 885 q 182 899 221 896 l 206 1021 q 320 1003 267 1014 q 425 976 374 993 l 511 1061 l 575 994 l 517 936 q 713 733 647 865 q 779 390 779 600 q 751 208 779 286 q 676 80 724 131 q 563 3 628 29 q 421 -22 497 -22 q 270 3 336 -22 q 158 76 204 29 q 89 187 113 122 q 65 329 65 251 q 92 475 65 410 q 163 587 118 540 q 267 658 207 633 q 397 683 328 683 q 523 660 471 683 q 614 589 575 636 q 552 738 596 674 q 422 842 508 801 l 319 739 l 254 807 l 324 875 z "},"ñ":{"ha":807,"x_min":90,"x_max":724,"o":"m 243 722 l 243 617 q 352 714 292 683 q 482 744 413 744 q 724 478 724 744 l 724 0 l 565 0 l 565 453 q 533 576 565 540 q 439 611 501 611 q 362 597 397 611 q 301 557 326 582 q 262 499 276 532 q 247 431 247 467 l 247 0 l 90 0 l 90 722 l 243 722 m 153 838 q 194 974 153 929 q 307 1018 235 1018 q 356 1008 332 1018 q 402 985 379 997 q 447 962 425 972 q 493 951 469 951 q 551 1014 551 951 l 661 1014 q 620 877 661 919 q 508 835 579 835 q 458 843 482 835 q 414 863 435 851 l 374 886 q 348 897 360 893 q 322 901 336 901 q 263 838 263 901 l 153 838 z "},"ò":{"ha":846,"x_min":65,"x_max":779,"o":"m 422 106 q 569 174 522 106 q 615 363 615 243 q 569 549 615 481 q 422 617 522 617 q 276 548 322 617 q 229 363 229 479 q 274 175 229 244 q 422 106 319 106 m 421 -22 q 158 78 251 -22 q 65 361 65 178 q 90 518 65 447 q 160 639 114 589 q 272 717 206 689 q 424 744 339 744 q 576 716 510 744 q 688 638 643 688 q 756 517 733 588 q 779 364 779 447 q 753 198 779 269 q 678 77 726 126 q 565 3 631 28 q 421 -22 500 -22 m 394 1029 l 557 824 l 408 824 l 210 1029 l 394 1029 z "},"ó":{"ha":846,"x_min":65,"x_max":779,"o":"m 422 106 q 569 174 522 106 q 615 363 615 243 q 569 549 615 481 q 422 617 522 617 q 276 548 322 617 q 229 363 229 479 q 274 175 229 244 q 422 106 319 106 m 421 -22 q 158 78 251 -22 q 65 361 65 178 q 90 518 65 447 q 160 639 114 589 q 272 717 206 689 q 424 744 339 744 q 576 716 510 744 q 688 638 643 688 q 756 517 733 588 q 779 364 779 447 q 753 198 779 269 q 678 77 726 126 q 565 3 631 28 q 421 -22 500 -22 m 651 1029 l 453 824 l 304 824 l 467 1029 l 651 1029 z "},"ô":{"ha":846,"x_min":65,"x_max":779,"o":"m 422 106 q 569 174 522 106 q 615 363 615 243 q 569 549 615 481 q 422 617 522 617 q 276 548 322 617 q 229 363 229 479 q 274 175 229 244 q 422 106 319 106 m 421 -22 q 158 78 251 -22 q 65 361 65 178 q 90 518 65 447 q 160 639 114 589 q 272 717 206 689 q 424 744 339 744 q 576 716 510 744 q 688 638 643 688 q 756 517 733 588 q 779 364 779 447 q 753 198 779 269 q 678 77 726 126 q 565 3 631 28 q 421 -22 500 -22 m 501 1029 l 664 824 l 525 824 l 422 942 l 319 824 l 179 824 l 343 1029 l 501 1029 z "},"õ":{"ha":846,"x_min":65,"x_max":779,"o":"m 422 106 q 569 174 522 106 q 615 363 615 243 q 569 549 615 481 q 422 617 522 617 q 276 548 322 617 q 229 363 229 479 q 274 175 229 244 q 422 106 319 106 m 421 -22 q 158 78 251 -22 q 65 361 65 178 q 90 518 65 447 q 160 639 114 589 q 272 717 206 689 q 424 744 339 744 q 576 716 510 744 q 688 638 643 688 q 756 517 733 588 q 779 364 779 447 q 753 198 779 269 q 678 77 726 126 q 565 3 631 28 q 421 -22 500 -22 m 168 838 q 209 974 168 929 q 322 1018 250 1018 q 371 1008 347 1018 q 417 985 394 997 q 463 962 440 972 q 508 951 485 951 q 567 1014 567 951 l 676 1014 q 635 877 676 919 q 524 835 594 835 q 474 843 497 835 q 429 863 450 851 l 389 886 q 363 897 375 893 q 338 901 351 901 q 278 838 278 901 l 168 838 z "},"ö":{"ha":846,"x_min":65,"x_max":779,"o":"m 422 106 q 569 174 522 106 q 615 363 615 243 q 569 549 615 481 q 422 617 522 617 q 276 548 322 617 q 229 363 229 479 q 274 175 229 244 q 422 106 319 106 m 421 -22 q 158 78 251 -22 q 65 361 65 178 q 90 518 65 447 q 160 639 114 589 q 272 717 206 689 q 424 744 339 744 q 576 716 510 744 q 688 638 643 688 q 756 517 733 588 q 779 364 779 447 q 753 198 779 269 q 678 77 726 126 q 565 3 631 28 q 421 -22 500 -22 m 629 1006 l 629 850 l 478 850 l 478 1006 l 629 1006 m 367 1006 l 367 850 l 215 850 l 215 1006 l 367 1006 z "},"÷":{"ha":822,"x_min":108,"x_max":714,"o":"m 714 542 l 714 404 l 108 404 l 108 542 l 714 542 m 485 296 l 485 129 l 335 129 l 335 296 l 485 296 m 485 810 l 485 643 l 335 643 l 335 810 l 485 810 z "},"ø":{"ha":846,"x_min":65,"x_max":779,"o":"m 521 592 q 476 610 500 603 q 422 617 453 617 q 275 548 321 617 q 229 363 229 479 q 236 276 229 315 q 261 206 243 238 l 521 592 m 324 129 q 367 112 343 118 q 422 106 390 106 q 569 175 522 106 q 615 363 615 244 q 608 446 615 406 q 585 517 600 486 l 324 129 m 168 68 q 65 361 65 168 q 90 519 65 449 q 161 640 115 590 q 274 717 207 690 q 424 744 340 744 q 599 706 517 744 l 658 794 l 736 742 l 675 651 q 752 528 725 601 q 779 364 779 456 q 753 200 779 272 q 679 78 726 128 q 566 3 632 29 q 421 -22 500 -22 q 327 -12 371 -22 q 244 15 283 -3 l 179 -83 l 101 -31 l 168 68 z "},"ù":{"ha":797,"x_min":85,"x_max":708,"o":"m 242 722 l 242 268 q 272 144 242 178 q 363 111 301 111 q 430 124 396 111 q 490 160 464 136 q 533 217 517 183 q 550 292 550 250 l 550 722 l 708 722 l 708 0 l 554 0 l 554 106 q 446 8 504 39 q 321 -22 388 -22 q 140 43 194 -22 q 85 243 85 108 l 85 722 l 242 722 m 364 1029 l 526 824 l 378 824 l 179 1029 l 364 1029 z "},"ú":{"ha":797,"x_min":85,"x_max":708,"o":"m 242 722 l 242 268 q 272 144 242 178 q 363 111 301 111 q 430 124 396 111 q 490 160 464 136 q 533 217 517 183 q 550 292 550 250 l 550 722 l 708 722 l 708 0 l 554 0 l 554 106 q 446 8 504 39 q 321 -22 388 -22 q 140 43 194 -22 q 85 243 85 108 l 85 722 l 242 722 m 625 1029 l 426 824 l 278 824 l 440 1029 l 625 1029 z "},"û":{"ha":797,"x_min":85,"x_max":708,"o":"m 242 722 l 242 268 q 272 144 242 178 q 363 111 301 111 q 430 124 396 111 q 490 160 464 136 q 533 217 517 183 q 550 292 550 250 l 550 722 l 708 722 l 708 0 l 554 0 l 554 106 q 446 8 504 39 q 321 -22 388 -22 q 140 43 194 -22 q 85 243 85 108 l 85 722 l 242 722 m 478 1029 l 640 824 l 501 824 l 399 942 l 296 824 l 156 824 l 319 1029 l 478 1029 z "},"ü":{"ha":797,"x_min":85,"x_max":708,"o":"m 242 722 l 242 268 q 272 144 242 178 q 363 111 301 111 q 430 124 396 111 q 490 160 464 136 q 533 217 517 183 q 550 292 550 250 l 550 722 l 708 722 l 708 0 l 554 0 l 554 106 q 446 8 504 39 q 321 -22 388 -22 q 140 43 194 -22 q 85 243 85 108 l 85 722 l 242 722 m 604 1006 l 604 850 l 453 850 l 453 1006 l 604 1006 m 342 1006 l 342 850 l 190 850 l 190 1006 l 342 1006 z "},"ý":{"ha":757,"x_min":10,"x_max":746,"o":"m 99 -128 q 178 -140 133 -140 q 243 -120 219 -140 q 288 -44 267 -100 l 314 25 l 10 722 l 193 722 l 392 201 l 574 722 l 746 722 l 458 -7 q 411 -119 433 -71 q 361 -201 389 -168 q 295 -252 333 -235 q 201 -269 257 -269 q 135 -265 165 -269 q 69 -249 104 -260 l 99 -128 m 603 1029 l 404 824 l 256 824 l 418 1029 l 603 1029 z "},"þ":{"ha":847,"x_min":90,"x_max":782,"o":"m 246 338 q 263 224 247 268 q 305 153 279 179 q 364 117 331 126 q 433 107 397 107 q 506 121 472 107 q 564 165 539 135 q 603 243 589 194 q 617 363 617 292 q 602 478 617 431 q 564 556 588 526 q 508 600 540 586 q 440 614 475 614 q 352 597 389 614 q 292 550 315 581 q 257 477 268 519 q 246 383 246 435 l 246 349 l 246 338 m 247 992 l 247 628 q 348 715 290 685 q 478 744 406 744 q 613 717 556 744 q 707 639 669 689 q 763 519 744 589 q 782 364 782 449 q 760 203 782 275 q 696 82 738 132 q 596 5 654 32 q 465 -22 538 -22 q 348 0 403 -22 q 247 82 293 22 l 247 -269 l 90 -269 l 90 992 l 247 992 z "},"ÿ":{"ha":757,"x_min":10,"x_max":746,"o":"m 99 -128 q 178 -140 133 -140 q 243 -120 219 -140 q 288 -44 267 -100 l 314 25 l 10 722 l 193 722 l 392 201 l 574 722 l 746 722 l 458 -7 q 411 -119 433 -71 q 361 -201 389 -168 q 295 -252 333 -235 q 201 -269 257 -269 q 135 -265 165 -269 q 69 -249 104 -260 l 99 -128 m 586 1006 l 586 850 l 435 850 l 435 1006 l 586 1006 m 324 1006 l 324 850 l 172 850 l 172 1006 l 324 1006 z "},"ı":{"ha":342,"x_min":92,"x_max":250,"o":"m 250 722 l 250 0 l 92 0 l 92 722 l 250 722 z "},"Œ":{"ha":1485,"x_min":72,"x_max":1444,"o":"m 794 506 q 776 656 793 589 q 726 772 760 724 q 640 846 692 819 q 521 872 589 872 q 403 845 454 872 q 317 769 351 818 q 265 651 282 721 q 247 496 247 581 q 317 219 247 319 q 521 119 388 119 q 644 146 592 119 q 729 222 696 172 q 778 344 763 272 q 794 506 794 415 m 794 119 q 679 13 746 50 q 511 -25 613 -25 q 332 10 413 -25 q 194 113 251 46 q 104 277 136 181 q 72 494 72 374 q 103 708 72 611 q 192 873 135 804 q 331 979 250 942 q 511 1017 411 1017 q 678 980 611 1017 q 794 874 744 943 l 794 992 l 1418 992 l 1418 847 l 957 847 l 957 583 l 1390 583 l 1390 438 l 957 438 l 957 144 l 1444 144 l 1425 0 l 794 0 l 794 119 z "},"œ":{"ha":1339,"x_min":65,"x_max":1276,"o":"m 1122 432 q 1081 572 1122 521 q 951 624 1039 624 q 820 571 865 624 q 768 432 775 518 l 1122 432 m 607 363 q 562 549 607 481 q 418 617 517 617 q 274 548 319 617 q 229 363 229 479 q 274 174 229 243 q 418 106 318 106 q 561 175 515 106 q 607 363 607 244 m 1267 214 q 1169 38 1246 97 q 954 -22 1093 -22 q 789 17 853 -22 q 683 132 725 57 q 576 17 639 57 q 417 -22 513 -22 q 158 78 250 -22 q 65 361 65 178 q 90 519 65 449 q 161 640 115 590 q 272 717 207 690 q 419 744 338 744 q 580 705 515 744 q 686 590 644 665 q 797 705 731 665 q 954 744 863 744 q 1096 719 1035 744 q 1197 646 1157 693 q 1256 534 1236 599 q 1276 392 1276 469 l 1276 322 l 767 322 q 802 187 768 239 q 907 121 836 135 q 986 122 951 111 q 1044 168 1021 133 q 1158 181 1111 168 q 1242 214 1204 194 l 1267 214 z "},"Š":{"ha":894,"x_min":46,"x_max":838,"o":"m 215 303 q 285 161 226 206 q 461 117 344 117 q 557 129 518 117 q 619 163 596 142 q 653 212 643 183 q 663 272 663 240 q 656 319 663 296 q 631 361 649 342 q 582 395 613 381 q 504 418 551 410 l 378 442 q 244 476 303 456 q 147 531 186 497 q 87 615 107 565 q 67 735 67 664 q 95 858 67 806 q 174 947 124 911 q 292 999 224 982 q 442 1017 361 1017 q 614 993 544 1017 q 726 931 683 969 q 792 843 769 893 q 822 739 814 793 l 664 714 q 597 838 644 797 q 444 878 549 878 q 345 867 385 878 q 281 838 306 857 q 247 795 257 819 q 236 744 236 771 q 272 647 236 679 q 396 597 307 615 l 533 571 q 764 472 690 542 q 838 269 838 401 q 815 153 838 207 q 744 60 792 100 q 627 -2 697 21 q 464 -25 557 -25 q 165 55 274 -25 q 46 303 57 135 l 215 303 m 346 1272 l 450 1167 l 551 1272 l 692 1272 l 528 1078 l 369 1078 l 206 1272 l 346 1272 z "},"š":{"ha":736,"x_min":47,"x_max":681,"o":"m 199 221 q 218 162 203 185 q 256 125 233 139 q 310 106 279 111 q 375 101 340 101 q 489 125 454 101 q 524 194 524 149 q 502 256 524 231 q 414 292 481 281 q 263 321 328 307 q 153 359 197 335 q 86 422 108 383 q 64 525 64 460 q 86 616 64 575 q 148 685 108 657 q 242 729 188 714 q 363 744 297 744 q 501 728 446 744 q 592 682 557 711 q 644 615 626 653 q 672 536 663 578 l 531 517 q 480 597 514 571 q 367 624 446 624 q 292 615 321 624 q 245 594 263 607 q 222 567 228 582 q 215 536 215 551 q 221 497 215 513 q 241 472 226 482 q 281 456 256 463 q 343 442 306 449 l 433 426 q 553 394 506 414 q 630 347 601 375 q 669 281 658 318 q 681 197 681 243 q 606 38 681 99 q 378 -22 531 -22 q 258 -10 315 -22 q 154 29 200 1 q 80 103 108 57 q 47 221 51 150 l 199 221 m 290 824 l 126 1031 l 267 1031 l 369 911 l 472 1031 l 611 1031 l 449 824 l 290 824 z "},"Ÿ":{"ha":882,"x_min":17,"x_max":865,"o":"m 361 413 l 17 992 l 204 992 l 443 561 l 688 992 l 865 992 l 528 413 l 528 0 l 361 0 l 361 413 m 649 1253 l 649 1092 l 493 1092 l 493 1253 l 649 1253 m 379 1253 l 379 1092 l 224 1092 l 224 1253 l 379 1253 z "},"Ž":{"ha":814,"x_min":38,"x_max":789,"o":"m 38 125 l 571 847 l 47 847 l 47 992 l 769 992 l 769 865 l 238 146 l 789 146 l 769 0 l 38 0 l 38 125 m 301 1272 l 406 1167 l 507 1272 l 647 1272 l 483 1078 l 325 1078 l 161 1272 l 301 1272 z "},"ž":{"ha":672,"x_min":44,"x_max":649,"o":"m 431 597 l 53 597 l 53 722 l 629 722 l 629 611 l 244 125 l 649 125 l 631 0 l 44 0 l 44 111 l 431 597 m 268 824 l 104 1031 l 244 1031 l 347 911 l 450 1031 l 589 1031 l 426 824 l 268 824 z "},"ƒ":{"ha":822,"x_min":-40,"x_max":761,"o":"m 0 -94 q 30 -105 15 -101 q 58 -110 44 -108 q 108 -110 85 -114 q 173 -75 151 -106 q 207 18 194 -44 l 315 569 l 204 569 l 224 700 l 339 700 l 353 767 q 433 926 375 871 q 604 985 492 982 q 624 985 615 985 q 644 983 633 985 q 706 974 679 981 q 761 957 733 968 l 719 838 q 690 847 704 843 q 660 853 675 851 q 634 855 647 854 q 607 854 621 856 q 560 840 578 851 q 531 810 543 829 q 512 764 519 792 q 496 700 504 736 l 671 700 l 651 569 l 469 569 l 354 -24 q 277 -184 332 -128 q 113 -243 222 -240 q 92 -243 101 -243 q 71 -242 82 -243 q -40 -217 13 -237 l 0 -94 z "},"ȷ":{"ha":342,"x_min":-108,"x_max":250,"o":"m -85 -114 q 4 -126 -43 -126 q 74 -92 57 -126 q 92 10 92 -57 l 92 722 l 250 722 l 250 -6 q 199 -192 250 -128 q 32 -257 149 -257 q -108 -235 -42 -257 l -85 -114 z "},"ˆ":{"ha":560,"x_min":36,"x_max":521,"o":"m 358 1029 l 521 824 l 382 824 l 279 942 l 176 824 l 36 824 l 200 1029 l 358 1029 z "},"ˇ":{"ha":560,"x_min":36,"x_max":521,"o":"m 200 824 l 36 1031 l 176 1031 l 279 911 l 382 1031 l 521 1031 l 358 824 l 200 824 z "},"˚":{"ha":560,"x_min":128,"x_max":431,"o":"m 279 897 q 324 914 307 897 q 342 965 342 931 q 325 1017 342 1000 q 279 1033 308 1033 q 215 965 215 1033 q 279 897 215 897 m 128 965 q 140 1029 128 1001 q 172 1076 151 1057 q 221 1104 193 1094 q 279 1114 249 1114 q 386 1074 342 1114 q 431 965 431 1035 q 417 897 431 925 q 383 852 404 869 q 334 826 361 835 q 279 818 307 818 q 172 854 215 818 q 128 965 128 890 z "},"˜":{"ha":560,"x_min":25,"x_max":533,"o":"m 25 838 q 66 974 25 929 q 179 1018 107 1018 q 228 1008 204 1018 q 274 985 251 997 q 319 962 297 972 q 365 951 342 951 q 424 1014 424 951 l 533 1014 q 492 877 533 919 q 381 835 451 835 q 331 843 354 835 q 286 863 307 851 l 246 886 q 220 897 232 893 q 194 901 208 901 q 135 838 135 901 l 25 838 z "},"μ":{"ha":803,"x_min":90,"x_max":714,"o":"m 247 722 l 247 275 q 274 149 247 188 q 372 111 301 111 q 411 115 393 111 q 447 128 429 118 q 483 150 464 136 q 518 183 501 164 q 545 228 535 203 q 556 285 556 253 l 556 722 l 714 722 l 714 0 l 560 0 l 560 104 q 360 -18 479 -18 q 299 -11 328 -18 q 247 22 269 -4 l 247 -269 l 90 -269 l 90 722 l 247 722 z "},"–":{"ha":694,"x_min":0,"x_max":694,"o":"m 694 486 l 694 335 l 0 335 l 0 486 l 694 486 z "},"—":{"ha":1389,"x_min":0,"x_max":1389,"o":"m 1389 486 l 1389 335 l 0 335 l 0 486 l 1389 486 z "},"‘":{"ha":311,"x_min":61,"x_max":264,"o":"m 264 992 l 222 665 l 61 665 l 142 992 l 264 992 z "},"’":{"ha":311,"x_min":49,"x_max":250,"o":"m 250 992 l 169 665 l 49 665 l 90 992 l 250 992 z "},"‚":{"ha":311,"x_min":50,"x_max":253,"o":"m 253 194 l 174 -132 l 50 -132 l 94 194 l 253 194 z "},"“":{"ha":539,"x_min":61,"x_max":492,"o":"m 492 992 l 450 665 l 297 665 l 378 992 l 492 992 m 256 992 l 214 665 l 61 665 l 142 992 l 256 992 z "},"”":{"ha":539,"x_min":49,"x_max":478,"o":"m 243 992 l 163 665 l 49 665 l 90 992 l 243 992 m 478 992 l 397 665 l 283 665 l 325 992 l 478 992 z "},"„":{"ha":539,"x_min":50,"x_max":479,"o":"m 244 193 l 165 -133 l 50 -133 l 94 193 l 244 193 m 479 193 l 400 -133 l 285 -133 l 328 193 l 479 193 z "},"†":{"ha":657,"x_min":24,"x_max":633,"o":"m 24 592 l 24 731 l 250 731 l 250 992 l 407 992 l 407 731 l 633 731 l 633 592 l 407 592 l 407 -121 l 250 -121 l 250 592 l 24 592 z "},"‡":{"ha":657,"x_min":24,"x_max":633,"o":"m 24 147 l 24 288 l 250 288 l 250 601 l 24 601 l 24 740 l 250 740 l 250 992 l 407 992 l 407 740 l 633 740 l 633 601 l 407 601 l 407 288 l 633 288 l 633 147 l 407 147 l 407 -121 l 250 -121 l 250 147 l 24 147 z "},"•":{"ha":529,"x_min":65,"x_max":464,"o":"m 65 506 q 80 585 65 549 q 122 647 94 621 q 185 689 149 674 q 265 704 221 704 q 345 689 308 704 q 408 647 382 674 q 449 583 435 619 q 464 506 464 547 q 447 419 464 457 q 403 357 431 382 q 339 319 375 332 q 265 306 303 306 q 185 320 221 306 q 122 361 149 335 q 80 424 94 388 q 65 506 65 461 z "},"…":{"ha":1272,"x_min":76,"x_max":1064,"o":"m 244 193 l 244 0 l 76 0 l 76 193 l 244 193 m 1064 193 l 1064 0 l 896 0 l 896 193 l 1064 193 m 853 193 l 853 0 l 685 0 l 685 193 l 853 193 z "},"‰":{"ha":1878,"x_min":46,"x_max":1833,"o":"m 1583 89 q 1670 131 1640 89 q 1700 274 1700 172 q 1670 417 1700 374 q 1583 461 1640 461 q 1499 418 1528 461 q 1469 274 1469 375 q 1498 130 1469 171 q 1583 89 1526 89 m 1583 -25 q 1401 50 1467 -25 q 1335 274 1335 125 q 1353 407 1335 350 q 1406 501 1372 464 q 1485 558 1439 539 q 1583 576 1531 576 q 1764 501 1694 576 q 1833 274 1833 425 q 1814 136 1833 193 q 1760 44 1794 79 q 1681 -8 1726 8 q 1583 -25 1635 -25 m 1015 89 q 1102 131 1072 89 q 1132 274 1132 172 q 1102 417 1132 374 q 1015 461 1072 461 q 931 418 960 461 q 901 274 901 375 q 931 130 901 171 q 1015 89 960 89 m 1015 -25 q 833 50 899 -25 q 767 274 767 125 q 785 407 767 350 q 838 501 804 464 q 917 558 871 539 q 1015 576 963 576 q 1196 501 1126 576 q 1265 274 1265 425 q 1246 136 1265 193 q 1192 44 1226 79 q 1113 -8 1158 8 q 1015 -25 1067 -25 m 335 0 l 819 960 l 975 960 l 489 0 l 335 0 m 294 494 q 381 537 351 494 q 410 681 410 579 q 381 824 410 781 q 294 868 351 868 q 210 824 239 868 q 181 681 181 781 q 209 536 181 578 q 294 494 238 494 m 294 381 q 113 455 179 381 q 46 681 46 529 q 65 814 46 757 q 117 908 83 871 q 196 965 150 946 q 294 983 242 983 q 475 908 406 983 q 544 681 544 832 q 524 540 544 597 q 470 448 504 483 q 390 397 436 413 q 294 381 344 381 z "},"‹":{"ha":433,"x_min":54,"x_max":399,"o":"m 239 668 l 399 668 l 232 360 l 399 43 l 236 43 l 54 358 l 239 668 z "},"›":{"ha":433,"x_min":35,"x_max":379,"o":"m 35 668 l 199 668 l 379 354 l 196 43 l 35 43 l 201 353 l 35 668 z "},"⁄":{"ha":139,"x_min":-250,"x_max":389,"o":"m -250 0 l 235 960 l 389 960 l -96 0 l -250 0 z "},"⁴":{"ha":572,"x_min":56,"x_max":513,"o":"m 328 819 l 176 619 l 328 619 l 328 819 m 331 961 l 440 961 l 440 619 l 513 619 l 499 524 l 440 524 l 440 403 l 328 403 l 328 524 l 56 524 l 56 600 l 331 961 z "},"€":{"ha":822,"x_min":24,"x_max":806,"o":"m 115 424 q 115 447 115 435 q 114 472 114 460 q 115 502 114 488 q 115 531 115 517 l 24 531 l 42 639 l 128 639 q 167 774 140 711 q 238 885 194 838 q 342 959 282 932 q 482 986 403 986 q 701 918 629 986 q 793 715 772 850 l 651 692 q 594 813 632 778 q 476 849 556 849 q 403 833 435 849 q 349 788 372 817 q 310 722 325 760 q 286 639 294 683 l 560 639 l 540 531 l 274 531 q 272 503 272 517 q 272 475 272 490 q 272 449 272 461 q 274 424 272 436 l 526 424 l 507 315 l 286 315 q 347 167 301 224 q 475 111 393 111 q 606 153 567 111 q 657 283 646 196 l 806 283 q 711 53 790 131 q 472 -25 632 -25 q 235 63 321 -25 q 125 315 150 151 l 24 315 l 42 424 l 115 424 z "},"™":{"ha":1269,"x_min":25,"x_max":1174,"o":"m 707 992 l 871 567 l 1038 992 l 1174 992 l 1174 436 l 1069 436 l 1069 819 l 918 436 l 822 436 l 671 818 l 671 436 l 567 436 l 567 992 l 707 992 m 25 890 l 25 992 l 494 992 l 494 890 l 317 890 l 317 436 l 203 436 l 203 890 l 25 890 z "}}}
